<svg id="Layer_1" data-name="Layer 1" xmlns="http://www.w3.org/2000/svg" viewBox="0 0 512 512"><defs><style>.cls-1{fill:#898989;}</style></defs><title>camera-other</title><path class="cls-1" d="M506.31,466.49H5.69A5.69,5.69,0,0,1,0,460.8V119.47a5.69,5.69,0,0,1,5.69-5.69H150.08l32.56-65.12a5.7,5.7,0,0,1,5.09-3.14H324.27a5.7,5.7,0,0,1,5.09,3.14l32.56,65.12H506.31a5.69,5.69,0,0,1,5.69,5.69V460.8A5.69,5.69,0,0,1,506.31,466.49ZM11.38,455.11H500.62v-330H358.4a5.7,5.7,0,0,1-5.09-3.14L320.75,56.89H191.25L158.69,122a5.7,5.7,0,0,1-5.09,3.14H11.38Z"/><path class="cls-1" d="M256,375.47a96.71,96.71,0,1,1,96.71-96.71A96.82,96.82,0,0,1,256,375.47Zm0-182a85.33,85.33,0,1,0,85.33,85.33A85.43,85.43,0,0,0,256,193.42Z"/></svg>