<svg xmlns="http://www.w3.org/2000/svg" xmlns:xlink="http://www.w3.org/1999/xlink" id="svg" version="1.1" width="512" height="512"><g id="svgg"><path id="path0" d="M184.375 0.479 C 144.375 7.690,116.030 26.131,96.848 57.422 C 64.216 110.655,79.611 185.025,130.247 218.769 C 138.109 224.009,138.233 223.209,128.932 227.255 C 69.249 253.220,26.562 317.375,26.562 381.111 C 26.562 395.360,29.793 399.609,40.625 399.609 C 51.759 399.609,54.439 395.745,55.491 378.175 C 58.610 326.059,88.746 280.142,135.156 256.793 C 228.350 209.906,337.765 273.436,344.537 378.367 C 345.665 395.853,348.289 399.609,359.375 399.609 C 370.305 399.609,373.446 395.390,373.422 380.741 C 373.314 315.277,324.996 245.732,264.997 224.682 L 262.415 223.777 269.294 219.136 C 322.273 183.390,336.386 107.604,300.206 53.142 C 282.987 27.221,256.152 9.140,224.219 1.943 C 218.540 0.663,189.311 -0.411,184.375 0.479 M216.406 30.193 C 275.274 40.527,308.655 106.028,282.460 159.806 C 252.128 222.077,167.857 230.066,126.317 174.609 C 77.097 108.901,135.100 15.920,216.406 30.193 " stroke-width="10" stroke="none" fill="#000000" fill-rule="evenodd"/></g></svg>