<svg xmlns="http://www.w3.org/2000/svg" viewBox="0 0 17 19"><path d="M13.53 12.827c-.973-.97-2.265-1.506-3.638-1.506H7.106c-2.835 0-5.143 2.308-5.143 5.144v.5h13.072v-.5c0-1.373-.535-2.665-1.507-3.637zM2.993 15.964c.248-2.05 1.998-3.643 4.113-3.643h2.786c1.106 0 2.146.432 2.93 1.214.664.664 1.074 1.513 1.185 2.43H2.995zM8.5 9.536c2.067 0 3.75-1.682 3.75-3.75s-1.683-3.75-3.75-3.75c-2.068 0-3.75 1.682-3.75 3.75s1.682 3.75 3.75 3.75zm0-6.5c1.517 0 2.75 1.233 2.75 2.75s-1.233 2.75-2.75 2.75-2.75-1.233-2.75-2.75 1.233-2.75 2.75-2.75z"/></svg>