<svg xmlns="http://www.w3.org/2000/svg" viewBox="0 0 17 19"><path d="M12.457 2.054c-1.765 0-3.228.55-3.958 1.396-.73-.844-2.194-1.396-3.96-1.396C2 2.054.084 3.197.084 4.714v12.23h1c0-.783 1.42-1.657 3.458-1.657S8 16.16 8 16.945h1c0-.784 1.42-1.658 3.457-1.658 2.038 0 3.458.874 3.458 1.658h1V4.713c0-1.516-1.917-2.66-4.458-2.66zM4.542 14.287c-1.425 0-2.653.36-3.458.942V4.71c0-.785 1.42-1.66 3.458-1.66S8 3.928 8 4.713v10.526c-.804-.586-2.028-.952-3.458-.952zm11.373.942c-.805-.584-2.033-.943-3.458-.943-1.43 0-2.653.365-3.458.952V4.712c0-.785 1.42-1.66 3.457-1.66 2.038 0 3.458.875 3.458 1.66V15.23z"/></svg>