<svg width="170" height="100" viewBox="0 0 170 100" fill="none" xmlns="http://www.w3.org/2000/svg">
<path d="M94.5308 20.8248C86.6091 20.5469 79.0631 17.9514 71.8571 15.1203C64.6511 12.2892 57.5139 9.13801 49.7815 7.63371C44.8073 6.66624 39.1202 6.52948 35.1113 9.23403C31.2558 11.8367 30.0094 16.3308 29.3396 20.4989C28.8347 23.6355 28.5392 26.938 29.9205 29.8739C30.8786 31.9107 32.5812 33.6259 33.7587 35.5783C37.8551 42.3739 34.9592 50.7523 30.52 57.3864C28.4374 60.491 26.0206 63.4604 24.4156 66.7672C22.8106 70.0741 22.0647 73.877 23.4704 77.2552C24.8645 80.6013 28.185 83.1211 31.7894 84.8917C39.0973 88.4851 47.7104 89.5137 56.1026 90.0971C74.6885 91.3861 93.3733 90.8245 112.009 90.2688C118.906 90.0622 125.832 89.8527 132.616 88.7703C136.384 88.1694 140.274 87.2165 143.009 84.9149C146.482 81.9936 147.342 77.0457 145.017 73.3824C141.115 67.2371 130.323 65.711 127.596 59.1162C126.094 55.4864 127.636 51.4419 129.818 48.0754C134.5 40.8536 142.345 34.5177 142.758 26.263C143.045 20.5891 139.27 14.9152 133.435 12.2325C127.322 9.42025 118.847 9.77378 114.336 14.4293C109.687 19.2273 101.526 21.0721 94.5308 20.8248Z" fill="#FCF3EC"/>
<path d="M13.9149 8.82085C13.9149 8.82085 27.8479 7.96832 26.2056 17.8714C26.2056 17.8714 26.5312 19.6172 24.9678 20.4159C24.9678 20.4159 24.9434 19.6885 23.5335 19.9315C23.0331 20.0157 22.5248 20.0401 22.0188 20.0042C21.3353 19.958 20.6855 19.6861 20.1685 19.2302V19.2302C20.1685 19.2302 16.2586 17.5935 14.7339 11.0962C14.7339 11.0962 13.608 9.67921 13.6524 9.3155L16.0033 10.3339C16.0033 10.3339 15.2001 12.055 15.8326 13.4851C15.8326 13.4851 15.9086 10.3964 16.3604 10.4692C16.4522 10.4852 17.5825 11.0657 17.5825 11.0657C17.5825 11.0657 16.1998 14.0626 17.2425 16.2405C17.2425 16.2405 16.8467 12.5482 18.0142 11.2824L19.6694 12.263C19.6694 12.263 18.0529 15.3575 19.1487 17.8845C19.1487 17.8845 18.8619 14.0103 20.0093 12.5016L21.5096 13.6873C21.5096 13.6873 19.9921 16.7425 20.9173 18.8331C20.9173 18.8331 21.0377 14.3231 21.8338 13.9826C21.8338 13.9826 23.1462 15.1567 23.347 15.6382C23.347 15.6382 22.3071 17.8525 22.9526 19.0222C22.9526 19.0222 23.347 16.018 23.6697 16.0034C23.6697 16.0034 24.9778 17.9951 25.1141 19.3583C25.1141 19.3583 25.0567 17.3288 23.9867 15.8128C23.9867 15.8128 25.2503 16.0325 25.9948 16.8647C25.9948 16.8647 25.7911 15.4564 23.6697 15.3342C23.6697 15.3342 22.5897 13.8241 22.2999 13.7339C22.2999 13.7339 24.4098 13.5549 25.6892 14.1296C25.6892 14.1296 24.5633 12.8013 21.9141 13.4021L20.4339 12.1772C20.4339 12.1772 23.2107 11.7902 24.3883 12.2165C24.3883 12.2165 23.0329 11.0424 20.0337 11.8978L18.4187 10.9216C18.4187 10.9216 20.7867 10.4037 22.1981 10.5914C22.1981 10.5914 20.7093 9.77668 17.9468 10.6598L16.7993 10.1346C16.7993 10.1346 18.5349 9.78832 19.0426 9.73449C19.5504 9.68067 19.5776 9.53664 19.5776 9.53664C18.4787 9.35135 17.3506 9.47876 16.3188 9.90471C16.3188 9.90471 13.8733 8.97652 13.9149 8.82085Z" fill="#FCF3EC"/>
<path d="M21.7176 35.3135C21.7176 35.3135 28.0128 34.928 27.2713 39.4031C27.2713 39.4031 27.4147 40.1931 26.7119 40.5524C26.7119 40.5524 26.7004 40.2207 26.0665 40.3327C25.8406 40.3718 25.6109 40.3831 25.3823 40.3662C25.0735 40.3453 24.7799 40.2227 24.5461 40.017V40.017C24.5461 40.017 22.7761 39.2751 22.0877 36.3407C22.0877 36.3407 21.5785 35.702 21.5986 35.5376L22.6614 35.9973C22.6614 35.9973 22.2985 36.7742 22.5839 37.4201C22.5839 37.4201 22.6184 36.025 22.822 36.0584C22.8636 36.0657 23.3743 36.3276 23.3743 36.3276C23.3743 36.3276 22.7503 37.682 23.2208 38.6655C23.2208 38.6655 23.0429 36.9982 23.5693 36.425L24.318 36.8688C24.318 36.8688 23.5822 38.2669 24.0785 39.4162C24.0785 39.4162 23.9509 37.6704 24.4701 36.9837L25.1485 37.5191C25.1485 37.5191 24.4629 38.8983 24.8803 39.8468C24.8803 39.8468 24.9348 37.8101 25.2948 37.6544C25.2948 37.6544 25.8872 38.1839 25.979 38.4022C25.979 38.4022 25.5085 39.4031 25.7997 39.9312C25.7997 39.9312 25.979 38.5738 26.1253 38.568C26.1253 38.568 26.7162 39.4671 26.7779 40.084C26.7779 40.084 26.7521 39.166 26.2687 38.4836C26.6091 38.5497 26.9232 38.715 27.1723 38.9594C27.1723 38.9594 27.0805 38.3236 26.1224 38.2683C26.1224 38.2683 25.6347 37.586 25.5042 37.5409C25.5042 37.5409 26.4566 37.4594 27.0346 37.7198C27.0346 37.7198 26.5269 37.1205 25.3292 37.3925L24.6594 36.8382C24.6594 36.8382 25.9144 36.6651 26.4466 36.8571C26.4466 36.8571 25.8341 36.3261 24.4801 36.7116L23.7515 36.2752C23.7515 36.2752 24.8215 36.0424 25.4583 36.1297C25.4583 36.1297 24.7856 35.7616 23.5378 36.1603L23.0171 35.9231C23.0171 35.9231 23.8003 35.766 24.0312 35.7413C24.2621 35.7165 24.2721 35.6525 24.2721 35.6525C23.7759 35.5684 23.2664 35.6259 22.8005 35.8184C22.8005 35.8184 21.6947 35.3834 21.7176 35.3135Z" fill="#FCF3EC"/>
<path d="M0.119627 11.3959C0.119627 11.3959 6.41486 11.0119 5.67331 15.4855C5.67331 15.4855 5.81675 16.2769 5.11393 16.6363C5.11393 16.6363 5.10245 16.3046 4.46848 16.4166C4.24251 16.455 4.01288 16.4662 3.78431 16.4501C3.47539 16.4286 3.1818 16.3055 2.94811 16.0994V16.0994C2.94811 16.0994 1.17816 15.3589 0.489682 12.4245C0.489682 12.4245 -0.0195018 11.7844 0.00057869 11.62L1.06341 12.0797C1.06341 12.0797 0.700527 12.8581 0.985957 13.504C0.985957 13.504 1.02038 12.1088 1.22405 12.1423C1.26565 12.1423 1.77627 12.4114 1.77627 12.4114C1.77627 12.4114 1.15234 13.7659 1.62279 14.7494C1.62279 14.7494 1.44494 13.0807 1.97133 12.5089L2.72005 12.9454C2.72005 12.9454 1.98998 14.3449 2.48482 15.4855C2.48482 15.4855 2.35717 13.7397 2.87639 13.0545L3.55482 13.5898C3.55482 13.5898 2.86922 14.969 3.28661 15.9176C3.28661 15.9176 3.34111 13.8808 3.70112 13.7266C3.70112 13.7266 4.2935 14.2562 4.38529 14.4744C4.38529 14.4744 3.91484 15.4753 4.206 16.0034C4.206 16.0034 4.38529 14.6461 4.53159 14.6388C4.53159 14.6388 5.12254 15.5393 5.18421 16.1547C5.18421 16.1547 5.15839 15.2382 4.67503 14.5544C5.0157 14.6197 5.32993 14.7851 5.57865 15.0301C5.57865 15.0301 5.48685 14.3929 4.52873 14.3376C4.52873 14.3376 4.04106 13.6553 3.91053 13.6102C3.91053 13.6102 4.86292 13.5287 5.44095 13.7892C5.44095 13.7892 4.9332 13.1883 3.73555 13.4618L3.07146 12.9133C3.07146 12.9133 4.32649 12.7388 4.85862 12.9323C4.85862 12.9323 4.24617 12.4012 2.89217 12.7868L2.16353 12.3503C2.16353 12.3503 3.23354 12.1161 3.87037 12.2048C3.87037 12.2048 3.19768 11.8368 1.94982 12.2354L1.42916 11.9982C1.42916 11.9982 2.21373 11.8426 2.44323 11.8178C2.67272 11.7931 2.68419 11.7291 2.68419 11.7291C2.18692 11.6412 1.67532 11.6956 1.20684 11.8862C1.20684 11.8862 0.100981 11.4672 0.119627 11.3959Z" fill="#FCF3EC"/>
<ellipse cx="84.5" cy="79" rx="20.5" ry="2" fill="#E0DCD7"/>
<path d="M84.8947 26.3951C80.9158 26.3951 77.1748 27.9447 74.3614 30.7581C68.5535 36.5664 68.5535 46.0162 74.3614 51.8245C77.1748 54.6379 80.9158 56.1875 84.8947 56.1875C88.8736 56.1875 92.6145 54.6379 95.4279 51.8245C101.236 46.0162 101.236 36.5664 95.4279 30.7581C92.6145 27.9447 88.8736 26.3951 84.8947 26.3951ZM84.8947 57.7979C80.4858 57.7979 76.3406 56.0808 73.2229 52.9631C66.7865 46.5275 66.7865 36.0551 73.2229 29.6195C76.3406 26.5018 80.4858 24.7847 84.8947 24.7847C89.3036 24.7847 93.4487 26.5018 96.5665 29.6195C103.003 36.0551 103.003 46.5275 96.5665 52.9631C93.4487 56.0808 89.3036 57.7979 84.8947 57.7979Z" fill="#3C2F22"/>
<path d="M98.5596 28.7651L97.421 27.6265L71.2299 53.8177L72.3684 54.9562L98.5596 28.7651Z" fill="#FF7415"/>
<path d="M100.93 57.3261C100.321 57.9348 99.2609 57.9348 98.6526 57.3261C98.3482 57.0217 98.1807 56.6175 98.1807 56.1875C98.1807 55.7576 98.3482 55.3534 98.6526 55.049C98.9569 54.7446 99.3611 54.5771 99.7911 54.5771C100.221 54.5771 100.625 54.7446 100.93 55.049C101.234 55.3534 101.402 55.7576 101.402 56.1875C101.402 56.6175 101.234 57.0217 100.93 57.3261ZM106.635 41.2913C106.635 36.3913 105.044 31.7654 102.033 27.9137L100.764 28.9053C103.552 32.4712 105.025 36.754 105.025 41.2913C105.025 45.6463 103.664 49.7649 101.091 53.2417C100.686 53.063 100.246 52.9667 99.7911 52.9667C98.9308 52.9667 98.1219 53.3017 97.514 53.9104C96.9053 54.5184 96.5703 55.3272 96.5703 56.1875C96.5703 56.6429 96.6665 57.0829 96.8453 57.4871C93.4006 60.0292 89.1975 61.4213 84.8949 61.4213C80.3568 61.4213 76.0735 59.9478 72.5073 57.1598L71.5157 58.428C75.156 61.2744 79.4884 62.8506 84.0897 63.0152V66.6552H85.7001V63.014C90.0824 62.8506 94.3323 61.3577 97.8462 58.7509C98.4034 59.1752 99.0785 59.4083 99.7911 59.4083C100.651 59.4083 101.46 59.0734 102.068 58.4647C102.677 57.8563 103.012 57.0479 103.012 56.1875C103.012 55.4745 102.779 54.7986 102.353 54.2414C105.154 50.4767 106.635 46.0122 106.635 41.2913" fill="#FF7415"/>
<path d="M100.93 27.5337C100.321 28.1424 99.2608 28.1424 98.6524 27.5337C98.3481 27.2293 98.1806 26.8251 98.1806 26.3951C98.1806 25.9651 98.3481 25.5609 98.6524 25.2566C98.9568 24.9522 99.361 24.7847 99.791 24.7847C100.221 24.7847 100.625 24.9522 100.93 25.2566C101.234 25.5609 101.401 25.9651 101.401 26.3951C101.401 26.8251 101.234 27.2293 100.93 27.5337ZM102.068 24.118C101.46 23.5093 100.651 23.1743 99.791 23.1743C98.9306 23.1743 98.1218 23.5093 97.5139 24.118C96.9052 24.7259 96.5702 25.5348 96.5702 26.3951C96.5702 27.2555 96.9052 28.0639 97.5139 28.6722C98.1218 29.281 98.9306 29.6159 99.791 29.6159C100.651 29.6159 101.46 29.281 102.068 28.6722C102.677 28.0639 103.012 27.2555 103.012 26.3951C103.012 25.5348 102.677 24.7259 102.068 24.118" fill="#3C2F22"/>
<path d="M71.1371 57.3261C70.5284 57.9348 69.4684 57.9348 68.86 57.3261C68.5557 57.0217 68.3882 56.6175 68.3882 56.1875C68.3882 55.7575 68.5557 55.3533 68.86 55.049C69.1644 54.7446 69.5686 54.5771 69.9986 54.5771C70.4286 54.5771 70.8328 54.7446 71.1371 55.049C71.4415 55.3533 71.609 55.7575 71.609 56.1875C71.609 56.6175 71.4415 57.0217 71.1371 57.3261ZM69.9986 52.9667C69.1382 52.9667 68.3294 53.3017 67.7215 53.9104C67.1127 54.5183 66.7778 55.3272 66.7778 56.1875C66.7778 57.0479 67.1127 57.8563 67.7215 58.4646C68.3294 59.0734 69.1382 59.4083 69.9986 59.4083C70.8589 59.4083 71.6674 59.0734 72.2757 58.4646C72.8844 57.8563 73.2194 57.0479 73.2194 56.1875C73.2194 55.3272 72.8844 54.5183 72.2757 53.9104C71.6674 53.3017 70.8589 52.9667 69.9986 52.9667" fill="#3C2F22"/>
<path d="M91.7388 73.0967H78.0504V72.2915C78.0504 71.4034 78.7727 70.6811 79.6608 70.6811H90.1284C91.0166 70.6811 91.7388 71.4034 91.7388 72.2915V73.0967ZM84.8946 67.4603C85.7827 67.4603 86.505 68.1826 86.505 69.0707H83.2842C83.2842 68.1826 84.0065 67.4603 84.8946 67.4603ZM90.1284 69.0707H88.1154C88.1154 67.2948 86.6705 65.8499 84.8946 65.8499C83.1187 65.8499 81.6738 67.2948 81.6738 69.0707H79.6608C77.8849 69.0707 76.44 70.5156 76.44 72.2915V74.7071H93.3492V72.2915C93.3492 70.5156 91.9043 69.0707 90.1284 69.0707Z" fill="#3C2F22"/>
<path d="M94.9594 50.2172L75.9644 31.2221C77.5486 30.6649 79.2061 30.3807 80.9079 30.3807C84.888 30.3807 88.6289 31.9299 91.4427 34.7437C95.4852 38.7862 96.8255 44.8711 94.9594 50.2172ZM88.8749 52.2008C84.8989 52.2008 81.1599 50.6516 78.3469 47.8391C74.3024 43.7941 72.9638 37.7117 74.8339 32.3687L93.8217 51.3566C92.2362 51.9154 90.5779 52.2008 88.8749 52.2008V52.2008ZM80.9079 28.7703C78.5809 28.7703 76.3275 29.2458 74.2094 30.1842L73.926 30.3098L73.8 30.5929C71.0406 36.7909 72.4102 44.1794 77.2084 48.9776C80.3253 52.0945 84.4685 53.8112 88.8749 53.8112H88.8753C91.2096 53.8112 93.4698 53.3317 95.5931 52.3864L95.8762 52.26L96.0018 51.9766C98.7471 45.7794 97.3726 38.3965 92.5813 33.6047C89.4635 30.487 85.318 28.7703 80.9079 28.7703" fill="#3C2F22"/>
<path d="M88.4532 34.3166L84.8947 37.8752L78.6318 31.6119L78.6773 31.5664C82.1276 31.3273 85.6093 32.2867 88.4532 34.3166Z" fill="#E0E0E0"/>
<path d="M78.0624 44.7074L81.4784 41.2914L75.2156 35.0281L75.3122 34.9315C75.0731 38.3818 75.9073 41.7383 78.0624 44.7074Z" fill="#E0E0E0"/>
<path d="M71.7066 24.687C70.7633 23.7437 69.2338 23.7437 68.2905 24.687C67.3472 25.6303 67.3472 27.1598 68.2905 28.103C69.2338 29.0463 70.7633 29.0463 71.7066 28.103C72.6499 27.1598 72.6499 25.6303 71.7066 24.687Z" fill="#E0E0E0"/>
</svg>
