<svg width="170" height="100" viewBox="0 0 170 100" fill="none" xmlns="http://www.w3.org/2000/svg">
<path d="M96.5875 16.9932C87.0387 16.6707 77.9442 13.6706 69.259 10.3891C60.5738 7.10757 51.9718 3.47145 42.6501 1.73304C36.6562 0.61394 29.7999 0.455903 24.9694 3.58323C20.3211 6.59234 18.8197 11.787 18.0115 16.6077C17.404 20.2349 17.0475 24.0509 18.7114 27.4467C19.8668 29.8031 21.919 31.7844 23.3333 34.0419C28.2708 41.8987 24.7859 51.5852 19.4297 59.257C16.9207 62.8546 14.0076 66.2877 12.0717 70.1179C10.1358 73.948 9.24311 78.3371 10.9453 82.2507C12.625 86.1232 16.6236 89.0321 20.9642 91.0789C29.7643 95.2277 40.1424 96.4175 50.2617 97.0907C72.6633 98.5811 95.1851 97.9362 117.646 97.2899C125.958 97.0496 134.307 96.8081 142.484 95.5566C147.026 94.8628 151.713 93.7578 155.011 91.0995C159.196 87.7216 160.234 82.0015 157.429 77.7653C152.725 70.6601 139.719 68.8998 136.432 61.2704C134.622 57.0741 136.481 52.3985 139.112 48.5067C144.753 40.1552 154.209 32.8315 154.707 23.2864C155.05 16.7337 150.504 10.1655 143.475 7.06388C136.106 3.81321 125.89 4.2218 120.454 9.60403C114.856 15.1456 105.019 17.2772 96.5875 16.9932Z" fill="#FCF3EC"/>
<path d="M146.425 56.9186C147.538 56.9186 148.441 56.0402 148.441 54.9567C148.441 53.8731 147.538 52.9947 146.425 52.9947C145.311 52.9947 144.408 53.8731 144.408 54.9567C144.408 56.0402 145.311 56.9186 146.425 56.9186Z" fill="#FCF3EC"/>
<path d="M153.639 49.496C155.506 49.496 157.019 48.0234 157.019 46.2068C157.019 44.3902 155.506 42.9176 153.639 42.9176C151.772 42.9176 150.258 44.3902 150.258 46.2068C150.258 48.0234 151.772 49.496 153.639 49.496Z" fill="#FCF3EC"/>
<path d="M149.164 65.4564C151.031 65.4564 152.544 63.9838 152.544 62.1672C152.544 60.3506 151.031 58.878 149.164 58.878C147.297 58.878 145.783 60.3506 145.783 62.1672C145.783 63.9838 147.297 65.4564 149.164 65.4564Z" fill="#FCF3EC"/>
<path d="M14.787 50.0575C17.4307 50.0575 19.5739 47.9723 19.5739 45.4C19.5739 42.8276 17.4307 40.7424 14.787 40.7424C12.1432 40.7424 10 42.8276 10 45.4C10 47.9723 12.1432 50.0575 14.787 50.0575Z" fill="#FCF3EC"/>
<path d="M69.6516 73.2452C66.8626 73.2452 64.5937 70.9754 64.5937 68.1854C64.5937 65.3964 66.8626 63.1276 69.6516 63.1276C72.4415 63.1276 74.7124 65.3964 74.7124 68.1854C74.7124 70.9754 72.4415 73.2452 69.6516 73.2452Z" fill="white"/>
<path d="M74.7741 68.6458L74.6883 67.7203C74.4533 65.1442 72.2393 63.1276 69.6516 63.1276C67.0649 63.1276 64.8528 65.1441 64.6178 67.7203L64.5321 68.6458H59.9952C58.9802 68.6458 58.1539 67.8214 58.1539 66.8053V39.2114C58.1539 38.1963 58.9802 37.3719 59.9952 37.3719H87.5892C88.6033 37.3719 89.4286 38.1963 89.4286 39.2114V43.4623L89.4181 43.5374C89.4036 43.6279 89.3872 43.7165 89.3872 43.8109V46.4708L89.4286 47.4897V68.6458H74.7741Z" fill="#FC6E51"/>
<path d="M101.847 73.2452C99.0558 73.2452 96.7868 70.9754 96.7868 68.1854C96.7868 65.3964 99.0558 63.1276 101.847 63.1276C104.636 63.1276 106.906 65.3964 106.906 68.1854C106.906 70.9754 104.636 73.2452 101.847 73.2452Z" fill="white"/>
<path d="M106.967 68.6459L106.881 67.7204C106.646 65.1442 104.434 63.1276 101.847 63.1276C99.2579 63.1276 97.0458 65.1442 96.8108 67.7204L96.7251 68.6459H89.4281V45.6503H102.307C103.321 45.6503 104.145 46.4757 104.145 47.4897L107.824 55.768L113.344 56.6887H113.493L113.611 56.7291C114.523 56.9997 115.183 58.5415 115.183 59.4468V64.967H109.763H115.183V66.8054C115.183 67.8215 114.358 68.6459 113.344 68.6459H106.967V68.6459Z" fill="#FFB933"/>
<path d="M113.345 69.6319H107.824V67.6596H113.345C113.814 67.6596 114.197 67.2764 114.197 66.8054V59.4468C114.197 58.7496 113.616 57.7461 113.329 57.6729C113.274 57.6729 113.236 57.67 113.182 57.6613L107.662 56.7407C107.335 56.6868 107.058 56.4711 106.923 56.1686L103.244 47.8903C103.188 47.7642 103.159 47.6283 103.159 47.4897C103.159 47.0188 102.777 46.6364 102.307 46.6364H89.4283V44.6642H102.307C103.787 44.6642 105.005 45.8082 105.123 47.2595L108.51 54.8819L113.441 55.7044C115.085 55.7872 116.169 57.9849 116.169 59.4468V66.8054C116.169 68.3645 114.902 69.6319 113.345 69.6319Z" fill="#3C2F22"/>
<path d="M63.673 69.632H59.9951C58.436 69.632 57.1676 68.3645 57.1676 66.8054V54.8474H59.1399V66.8054C59.1399 67.2764 59.5237 67.6596 59.9951 67.6596H63.673V69.632Z" fill="#3C2F22"/>
<path d="M96.787 69.6319H74.7122V67.6596H96.787V69.6319Z" fill="#3C2F22"/>
<path d="M69.6514 74.2315C66.3188 74.2315 63.6074 71.5195 63.6074 68.1855C63.6074 64.8534 66.3188 62.1414 69.6514 62.1414C72.9859 62.1414 75.6983 64.8534 75.6983 68.1855C75.6983 71.5195 72.9859 74.2315 69.6514 74.2315ZM69.6514 64.1137C67.4061 64.1137 65.5797 65.9397 65.5797 68.1855C65.5797 70.4313 67.4061 72.2592 69.6514 72.2592C71.8982 72.2592 73.7261 70.4313 73.7261 68.1855C73.7261 65.9397 71.8982 64.1137 69.6514 64.1137Z" fill="#3C2F22"/>
<path d="M101.847 74.2315C98.5134 74.2315 95.801 71.5195 95.801 68.1855C95.801 64.8534 98.5134 62.1414 101.847 62.1414C105.18 62.1414 107.892 64.8534 107.892 68.1855C107.892 71.5195 105.18 74.2315 101.847 74.2315ZM101.847 64.1137C99.6007 64.1137 97.7734 65.9397 97.7734 68.1855C97.7734 70.4313 99.6007 72.2592 101.847 72.2592C104.093 72.2592 105.92 70.4313 105.92 68.1855C105.92 65.9397 104.093 64.1137 101.847 64.1137Z" fill="#3C2F22"/>
<path d="M114.264 65.9531H108.745V63.9808H114.264V65.9531Z" fill="#3C2F22"/>
<path d="M90.4147 67.7252H88.4424V45.6503H90.4147V67.7252Z" fill="#3C2F22"/>
<path d="M95.8673 61.0454H93.1062V59.0732H95.8673V61.0454Z" fill="#3C2F22"/>
<path d="M90.4145 59.4468H88.4422V39.2114C88.4422 38.7405 88.0594 38.3582 87.5889 38.3582H59.9949C59.5235 38.3582 59.1397 38.7405 59.1397 39.2114V59.4468H57.1674V39.2114C57.1674 37.6532 58.4357 36.3859 59.9949 36.3859H87.5889C89.1471 36.3859 90.4145 37.6532 90.4145 39.2114V59.4468Z" fill="#3C2F22"/>
<path d="M86.6692 43.8764H59.9948V41.9041H86.6692V43.8764Z" fill="#3C2F22"/>
<path d="M86.6692 51.2359H59.9948V49.2636H86.6692V51.2359Z" fill="#3C2F22"/>
<path d="M86.6692 58.5935H59.9948V56.6212H86.6692V58.5935Z" fill="#3C2F22"/>
<path d="M92.1884 55.8701C92.1884 56.3786 92.6006 56.7897 93.1062 56.7897H103.227C103.734 56.7897 104.145 56.3786 104.145 55.8701L101.386 50.3499C101.386 49.8414 100.974 49.4302 100.466 49.4302H93.1062C92.6006 49.4302 92.1884 49.8414 92.1884 50.3499V55.8701Z" fill="#3BAFDA"/>
<path d="M103.227 57.776H93.1064C92.0567 57.776 91.2025 56.9208 91.2025 55.8701V50.35C91.2025 49.2993 92.0567 48.4441 93.1064 48.4441H100.466C101.425 48.4441 102.222 49.1558 102.354 50.0794L105.028 55.429C105.096 55.5658 105.132 55.716 105.132 55.8701C105.132 56.9208 104.277 57.776 103.227 57.776ZM100.401 50.35L93.1064 50.4164L93.1748 55.8701L103.011 55.8046L100.504 50.7911C100.436 50.6543 100.401 50.5041 100.401 50.35Z" fill="#3C2F22"/>
<path d="M67.491 27.9862C72.7415 27.9862 76.9972 32.2428 76.9972 37.4914C76.9972 42.7419 72.7415 46.9966 67.491 46.9966C62.2405 46.9966 57.9858 42.7419 57.9858 37.4914C57.9858 32.2428 62.2405 27.9862 67.491 27.9862Z" fill="white"/>
<path d="M67.4913 47.9828C61.7064 47.9828 57 43.2774 57 37.4914C57 31.7074 61.7064 27 67.4913 27C73.2768 27 77.9837 31.7074 77.9837 37.4914C77.9837 43.2774 73.2768 47.9828 67.4913 47.9828ZM67.4913 28.9723C62.7941 28.9723 58.9723 32.7947 58.9723 37.4914C58.9723 42.1891 62.7941 46.0104 67.4913 46.0104C72.1895 46.0104 76.0114 42.1891 76.0114 37.4914C76.0114 32.7947 72.1895 28.9723 67.4913 28.9723Z" fill="#3C2F22"/>
<path d="M72.9235 38.4467H66.4904V30.0644H68.4626V36.4744H72.9235V38.4467Z" fill="#3C2F22"/>
<ellipse cx="87.5" cy="79" rx="20.5" ry="2" fill="#E0DCD7"/>
</svg>
