<svg width="170" height="100" viewBox="0 0 170 100" fill="none" xmlns="http://www.w3.org/2000/svg">
<path d="M49.528 3.08999C44.7047 2.91294 39.6664 2.78846 35.3051 4.84938C30.9439 6.91031 27.5721 11.9036 29.0346 16.4943C29.5119 17.9909 30.4416 19.2952 31.2256 20.6577C35.1456 27.4712 27.3273 33.2778 23.6932 40.2477C20.8958 45.613 16.1544 49.6961 12.7409 54.6949C9.32741 59.6937 7.38755 66.622 10.7455 71.6582C13.0448 75.1064 17.3117 76.7842 21.4453 77.1909C25.579 77.5975 29.7362 76.9571 33.8879 76.7925C41.9668 76.4831 50.0112 77.9995 57.4188 81.2283C67.6162 85.6849 76.4011 93.309 87.1384 96.251C88.4274 96.6037 89.7748 96.8886 91.093 96.6493C93.4311 96.2247 95.1309 94.2979 96.9612 92.7765C102.804 87.9533 110.894 87.0529 118.479 86.8288C126.063 86.6047 133.963 86.7776 140.819 83.5313C146.805 80.6972 151.413 75.4245 154.279 69.4686C157.144 63.5126 158.389 56.8942 158.858 50.3033C159.135 46.3807 159.126 42.3307 157.717 38.6584C156.134 34.5296 152.923 31.2418 149.555 28.3676C146.036 25.3633 142.201 22.6413 137.856 21.0202C132.667 19.0837 127.033 18.8071 121.508 18.3479C110.177 17.4046 98.935 15.605 87.8779 12.9646C77.3835 10.4638 73.8609 10.732 64.3032 5.63779C59.5062 3.08031 54.9355 3.28363 49.528 3.08999Z" fill="#FCF3EC"/>
<path d="M102.253 30.8798L102.256 30.8727L102.259 30.8655C103.221 28.3404 105.002 27.3806 106.678 26.4782C107.772 25.8943 108.355 25.0166 108.662 24.2956C108.677 24.2603 108.691 24.2253 108.705 24.1908C108.705 24.1917 108.706 24.1927 108.706 24.1937C109.062 24.8124 109.513 25.6874 109.897 26.7132C110.67 28.7808 111.138 31.3739 110.117 33.7169L110.116 33.7182C109.128 36.003 107.936 36.782 107.074 37.0379C106.632 37.1691 106.248 37.1718 105.978 37.1431C105.843 37.1287 105.737 37.1066 105.668 37.0892C105.634 37.0805 105.609 37.0731 105.595 37.0685L105.592 37.0677L103.134 35.9617C103.129 35.9556 103.124 35.9492 103.119 35.9424C103.065 35.8743 102.986 35.7714 102.895 35.6374C102.712 35.3688 102.481 34.9803 102.287 34.5035C101.9 33.5508 101.673 32.2723 102.253 30.8798Z" fill="#F7E5C6" stroke="#3C2F22"/>
<path d="M106.442 26.0375C104.762 26.9417 102.825 27.975 101.792 30.6875C102.825 30.3 104.375 30.0417 106.571 30.8167C108.637 31.5917 109.8 32.8833 110.446 34.175C110.446 34.0458 110.575 34.0458 110.575 33.9167C112.771 28.8792 108.508 22.9375 108.508 22.9375C108.508 22.9375 108.379 24.875 106.442 26.0375Z" fill="#FFF5E3"/>
<path d="M102.825 36.3708C102.825 36.3708 100.5 33.7875 101.792 30.6875C102.825 27.975 104.762 26.9417 106.442 26.0375C108.379 25.0042 108.508 22.9375 108.508 22.9375C108.508 22.9375 112.771 28.8792 110.575 33.9167C108.508 38.6958 105.408 37.5333 105.408 37.5333L102.825 36.3708Z" stroke="#3C2F22" stroke-width="2" stroke-miterlimit="10" stroke-linecap="round" stroke-linejoin="round"/>
<path d="M105.021 37.1458C105.021 37.1458 106.7 36.1125 107.992 32.7542" stroke="#3C2F22" stroke-width="2" stroke-miterlimit="10" stroke-linecap="round" stroke-linejoin="round"/>
<path d="M103.858 36.7583C103.858 36.7583 103.471 34.175 104.375 31.9792" stroke="#3C2F22" stroke-width="2" stroke-miterlimit="10" stroke-linecap="round" stroke-linejoin="round"/>
<path opacity="0.15" d="M99.6416 79.4031C99.6418 79.4031 99.6407 79.4048 99.6377 79.4081C99.6399 79.4047 99.6414 79.4031 99.6416 79.4031ZM98.7978 79.2361C99.1168 79.3345 99.3436 79.4291 99.4901 79.5125C99.3436 79.5959 99.1168 79.6905 98.7978 79.7889C98.0861 80.0083 97.031 80.2127 95.6971 80.3867C93.0364 80.7338 89.3455 80.95 85.2583 80.95C81.171 80.95 77.4801 80.7338 74.8194 80.3867C73.4855 80.2127 72.4304 80.0083 71.7187 79.7889C71.3997 79.6905 71.1729 79.5959 71.0264 79.5125C71.1729 79.4291 71.3997 79.3345 71.7187 79.2361C72.4304 79.0167 73.4855 78.8123 74.8194 78.6383C77.4801 78.2912 81.171 78.075 85.2583 78.075C89.3455 78.075 93.0364 78.2912 95.6971 78.6383C97.031 78.8123 98.0861 79.0167 98.7978 79.2361ZM70.8749 79.4031C70.8751 79.4031 70.8766 79.4047 70.8788 79.4081C70.8758 79.4048 70.8747 79.4031 70.8749 79.4031ZM70.8749 79.6219C70.8747 79.6219 70.8758 79.6202 70.8788 79.6169C70.8766 79.6203 70.8751 79.6219 70.8749 79.6219ZM99.6377 79.6169C99.6407 79.6202 99.6418 79.6219 99.6416 79.6219C99.6414 79.6219 99.6399 79.6203 99.6377 79.6169Z" fill="#45413C" stroke="#3C2F22"/>
<path d="M66.0304 49.8824L66.0304 49.8824L66.0265 49.8846C63.0994 51.5237 59.4083 49.5162 59.4083 46.1875V46.1867V46.186V46.1852V46.1845V46.1838V46.183V46.1823V46.1815V46.1808V46.1801V46.1794V46.1786V46.1779V46.1772V46.1765V46.1758V46.1751V46.1744V46.1736V46.1729V46.1723V46.1716V46.1709V46.1702V46.1695V46.1688V46.1681V46.1674V46.1668V46.1661V46.1654V46.1648V46.1641V46.1634V46.1628V46.1621V46.1615V46.1608V46.1602V46.1595V46.1589V46.1583V46.1576V46.157V46.1563V46.1557V46.1551V46.1545V46.1539V46.1532V46.1526V46.152V46.1514V46.1508V46.1502V46.1496V46.149V46.1484V46.1478V46.1472V46.1466V46.146V46.1454V46.1449V46.1443V46.1437V46.1431V46.1426V46.142V46.1414V46.1409V46.1403V46.1398V46.1392V46.1386V46.1381V46.1376V46.137V46.1365V46.1359V46.1354V46.1348V46.1343V46.1338V46.1333V46.1327V46.1322V46.1317V46.1312V46.1307V46.1301V46.1296V46.1291V46.1286V46.1281V46.1276V46.1271V46.1266V46.1261V46.1256V46.1251V46.1247V46.1242V46.1237V46.1232V46.1227V46.1223V46.1218V46.1213V46.1209V46.1204V46.1199V46.1195V46.119V46.1186V46.1181V46.1176V46.1172V46.1167V46.1163V46.1159V46.1154V46.115V46.1145V46.1141V46.1137V46.1133V46.1128V46.1124V46.112V46.1116V46.1111V46.1107V46.1103V46.1099V46.1095V46.1091V46.1087V46.1083V46.1079V46.1075V46.1071V46.1067V46.1063V46.1059V46.1055V46.1051V46.1047V46.1044V46.104V46.1036V46.1032V46.1029V46.1025V46.1021V46.1018V46.1014V46.101V46.1007V46.1003V46.1V46.0996V46.0992V46.0989V46.0985V46.0982V46.0979V46.0975V46.0972V46.0968V46.0965V46.0962V46.0958V46.0955V46.0952V46.0948V46.0945V46.0942V46.0939V46.0936V46.0932V46.0929V46.0926V46.0923V46.092V46.0917V46.0914V46.0911V46.0908V46.0905V46.0902V46.0899V46.0896V46.0893V46.089V46.0887V46.0884V46.0881V46.0878V46.0876V46.0873V46.087V46.0867V46.0865V46.0862V46.0859V46.0856V46.0854V46.0851V46.0848V46.0846V46.0843V46.0841V46.0838V46.0835V46.0833V46.083V46.0828V46.0825V46.0823V46.0821V46.0818V46.0816V46.0813V46.0811V46.0808V46.0806V46.0804V46.0801V46.0799V46.0797V46.0795V46.0792V46.079V46.0788V46.0786V46.0783V46.0781V46.0779V46.0777V46.0775V46.0773V46.0771V46.0769V46.0767V46.0764V46.0762V46.076V46.0758V46.0756V46.0754V46.0752V46.0751V46.0749V46.0747V46.0745V46.0743V46.0741V46.0739V46.0737V46.0736V46.0734V46.0732V46.073V46.0728V46.0727V46.0725V46.0723V46.0721V46.072V46.0718V46.0716V46.0715V46.0713V46.0711V46.071V46.0708V46.0707V46.0705V46.0704V46.0702V46.07V46.0699V46.0697V46.0696V46.0694V46.0693V46.0692V46.069V46.0689V46.0687V46.0686V46.0684V46.0683V46.0682V46.068V46.0679V46.0678V46.0676V46.0675V46.0674V46.0672V46.0671V46.067V46.0669V46.0667V46.0666V46.0665V46.0664V46.0663V46.0661V46.066V46.0659V46.0658V46.0657V46.0656V46.0655V46.0654V46.0653V46.0651V46.065V46.0649V46.0648V46.0647V46.0646V46.0645V46.0644V46.0643V46.0642V46.0641V46.064V46.0639V46.0639V46.0638V46.0637V46.0636V46.0635V46.0634V46.0633V46.0632V46.0631V46.0631V46.063V46.0629V46.0628V46.0627V46.0627V46.0626V46.0625V46.0624V46.0624V46.0623V46.0622V46.0621V46.0621V46.062V46.0619V46.0618V46.0618V46.0617V46.0616V46.0616V46.0615V46.0615V46.0614V46.0613V46.0613V46.0612V46.0611V46.0611V46.061V46.061V46.0609V46.0609V46.0608V46.0608V46.0607V46.0606V46.0606V46.0605V46.0605V46.0604V46.0604V46.0604V46.0603V46.0603V46.0602V46.0602V46.0601V46.0601V46.06V46.06V46.06V46.0599V46.0599V46.0598V46.0598V46.0598V46.0597V46.0597V46.0597V46.0596V46.0596V46.0595V46.0595V46.0595V46.0594V46.0594V46.0594V46.0594V46.0593V46.0593V46.0593V46.0592V46.0592V46.0592V46.0592V46.0591V46.0591V46.0591V46.0591V46.059V46.059V46.059V46.059V46.0589V46.0589V46.0589V46.0589V46.0589V46.0588V46.0588V46.0588V46.0588V46.0588V46.0588V46.0587V46.0587V46.0587V46.0587V46.0587V46.0586V46.0586V46.0586V46.0586V46.0585V46.0585V46.0585V46.0585V46.0585V46.0585V46.0584V46.0584V46.0584V46.0584V46.0584V46.0584V46.0583C59.4083 40.8773 61.8336 36.8258 65.7986 34.0519C69.7782 31.2677 75.3211 29.7667 81.5125 29.7667C93.6514 29.7667 101.679 38.2118 101.679 48.6417C101.679 59.0171 91.9027 67.5167 79.5749 67.5167C75.6559 67.5167 71.8559 66.5049 68.6867 64.9844C66.6152 63.9461 65.8292 61.3059 67.0781 59.3758L67.0782 59.3759L67.0843 59.3659L72.634 50.3315C73.1716 49.5163 72.9232 48.5857 72.3789 48.0204C71.8274 47.4477 70.9023 47.1711 70.0266 47.691L66.0304 49.8824ZM73.2625 60.6542C73.2625 61.6221 73.7878 62.4693 74.578 63.0574C75.3683 63.6455 76.4448 63.9958 77.6374 63.9958C78.7704 63.9958 79.8434 63.6429 80.644 63.0606C81.4414 62.4807 82.0125 61.6352 82.0125 60.6542C82.0125 59.6863 81.4871 58.839 80.6969 58.251C79.9066 57.6629 78.8301 57.3125 77.6374 57.3125C76.4448 57.3125 75.3683 57.6629 74.578 58.251C73.7878 58.839 73.2625 59.6863 73.2625 60.6542Z" fill="#F0D5A8" stroke="#3C2F22"/>
<path d="M81.5125 33.1417C93.1375 33.1417 101.146 40.7625 102.05 50.45C102.05 49.8042 102.179 49.2875 102.179 48.6417C102.179 37.9208 94.0416 29.2667 81.5125 29.2667C68.9833 29.2667 58.9083 35.3375 58.9083 46.0583C58.9083 46.0583 58.9083 46.0583 58.9083 46.1875C58.9083 46.7042 59.0374 47.0917 59.1666 47.6083C60.4583 38.3083 70.0166 33.1417 81.5125 33.1417Z" fill="#F7E5C6"/>
<path d="M81.5125 29.2667C68.9833 29.2667 58.9083 35.3375 58.9083 46.0583C58.9083 46.0583 58.9083 46.0583 58.9083 46.1875C58.9083 49.9333 63.0416 52.1292 66.2708 50.3208L70.275 48.125C71.5666 47.35 72.9875 48.9 72.2125 50.0625L66.6583 59.1042C65.2374 61.3 66.1416 64.2708 68.4666 65.4333C71.6958 66.9833 75.5708 68.0167 79.5749 68.0167C92.1041 68.0167 102.179 59.3625 102.179 48.6417C102.179 37.9208 93.9125 29.2667 81.5125 29.2667ZM77.6374 63.4958C75.4416 63.4958 73.7625 62.2042 73.7625 60.6542C73.7625 59.1042 75.4416 57.8125 77.6374 57.8125C79.8333 57.8125 81.5125 59.1042 81.5125 60.6542C81.5125 62.2042 79.7041 63.4958 77.6374 63.4958Z" stroke="#3C2F22" stroke-width="2" stroke-miterlimit="10" stroke-linecap="round" stroke-linejoin="round"/>
<path d="M94.575 56.0042C94.575 56.5768 94.2378 57.15 93.5811 57.6015C92.9266 58.0515 91.9949 58.3458 90.9416 58.3458C89.8883 58.3458 88.9567 58.0515 88.3022 57.6015C87.6455 57.15 87.3083 56.5768 87.3083 56.0042C87.3083 55.4315 87.6455 54.8583 88.3022 54.4068C88.9567 53.9569 89.8883 53.6625 90.9416 53.6625C91.9949 53.6625 92.9266 53.9569 93.5811 54.4068C94.2378 54.8583 94.575 55.4315 94.575 56.0042Z" fill="#FF6242" stroke="#3C2F22"/>
<path d="M95.8666 43.0875C95.8666 44.3646 94.5677 45.5583 92.7499 45.5583C90.9322 45.5583 89.6333 44.3646 89.6333 43.0875C89.6333 41.8104 90.9322 40.6167 92.7499 40.6167C94.5677 40.6167 95.8666 41.8104 95.8666 43.0875Z" fill="#FF8A14" stroke="#3C2F22"/>
<path d="M71.8416 39.2125C71.8416 40.4149 70.6046 41.5542 68.8541 41.5542C67.1036 41.5542 65.8666 40.4149 65.8666 39.2125C65.8666 38.0101 67.1036 36.8708 68.8541 36.8708C70.6046 36.8708 71.8416 38.0101 71.8416 39.2125Z" fill="#6DD627" stroke="#3C2F22"/>
<path d="M84.6291 35.9833C84.6291 36.5778 84.3127 37.1522 83.7298 37.5943C83.1466 38.0368 82.3186 38.325 81.3833 38.325C80.448 38.325 79.62 38.0368 79.0368 37.5943C78.4539 37.1522 78.1375 36.5778 78.1375 35.9833C78.1375 35.3888 78.4539 34.8145 79.0368 34.3723C79.62 33.9299 80.448 33.6417 81.3833 33.6417C82.3186 33.6417 83.1466 33.9299 83.7298 34.3723C84.3127 34.8145 84.6291 35.3888 84.6291 35.9833Z" fill="#FFE500" stroke="#3C2F22"/>
<path d="M93.6065 54.4096C94.1217 54.7759 94.437 55.2216 94.5388 55.679C93.6851 54.8579 92.3595 54.3417 90.9416 54.3417C89.9578 54.3417 89.031 54.5869 88.3027 55.0056C88.0737 55.1373 87.8594 55.2894 87.6681 55.46C87.8108 55.0806 88.1025 54.7171 88.535 54.4096C89.169 53.9587 90.0666 53.6625 91.0707 53.6625C92.0749 53.6625 92.9724 53.9587 93.6065 54.4096Z" fill="#E04122" stroke="#3C2F22"/>
<path d="M95.6473 42.4787C94.8952 41.8244 93.8331 41.425 92.7499 41.425C91.4939 41.425 90.386 41.8839 89.5433 42.6831C89.7672 41.5428 90.9318 40.6167 92.6207 40.6167C94.2075 40.6167 95.3315 41.4342 95.6473 42.4787Z" fill="#EB6D00" stroke="#3C2F22"/>
<path d="M71.752 38.6563C71.0121 37.9818 69.9899 37.55 68.8541 37.55C67.7183 37.55 66.6961 37.9818 65.9562 38.6563C66.2688 37.6898 67.3739 36.8708 68.8541 36.8708C70.3343 36.8708 71.4394 37.6898 71.752 38.6563Z" fill="#46B000" stroke="#3C2F22"/>
<path d="M83.8573 34.379C84.3239 34.7344 84.6191 35.1719 84.7197 35.6303C83.917 34.8324 82.7067 34.3208 81.3833 34.3208C80.4568 34.3208 79.5892 34.5697 78.9073 34.9936C78.716 35.1125 78.5368 35.247 78.3744 35.3955C78.5126 35.0236 78.7814 34.6732 79.1675 34.379C79.752 33.9336 80.5801 33.6417 81.5124 33.6417C82.4448 33.6417 83.2729 33.9336 83.8573 34.379Z" fill="#EBCB00" stroke="#3C2F22"/>
<path d="M90.9416 58.8458C93.2244 58.8458 95.075 57.5736 95.075 56.0042C95.075 54.4348 93.2244 53.1625 90.9416 53.1625C88.6589 53.1625 86.8083 54.4348 86.8083 56.0042C86.8083 57.5736 88.6589 58.8458 90.9416 58.8458Z" stroke="#3C2F22" stroke-width="2" stroke-miterlimit="10" stroke-linecap="round" stroke-linejoin="round"/>
<path d="M92.7499 46.0583C94.7474 46.0583 96.3666 44.7282 96.3666 43.0875C96.3666 41.4467 94.7474 40.1167 92.7499 40.1167C90.7525 40.1167 89.1333 41.4467 89.1333 43.0875C89.1333 44.7282 90.7525 46.0583 92.7499 46.0583Z" stroke="#3C2F22" stroke-width="2" stroke-miterlimit="10" stroke-linecap="round" stroke-linejoin="round"/>
<path d="M68.8541 42.0542C70.7802 42.0542 72.3416 40.7819 72.3416 39.2125C72.3416 37.6431 70.7802 36.3708 68.8541 36.3708C66.928 36.3708 65.3666 37.6431 65.3666 39.2125C65.3666 40.7819 66.928 42.0542 68.8541 42.0542Z" stroke="#3C2F22" stroke-width="2" stroke-miterlimit="10" stroke-linecap="round" stroke-linejoin="round"/>
<path d="M81.3833 38.825C83.4521 38.825 85.1291 37.5527 85.1291 35.9833C85.1291 34.4139 83.4521 33.1417 81.3833 33.1417C79.3145 33.1417 77.6375 34.4139 77.6375 35.9833C77.6375 37.5527 79.3145 38.825 81.3833 38.825Z" stroke="#3C2F22" stroke-width="2" stroke-miterlimit="10" stroke-linecap="round" stroke-linejoin="round"/>
<path d="M90.3934 76.2754L90.3935 76.2755L90.3954 76.2672L94.14 60.1265C94.1402 60.1256 94.1404 60.1248 94.1406 60.1239C95.2972 55.3698 96.8386 50.6182 98.7637 46.1261L98.7638 46.1261L98.7657 46.1215L99.4047 44.588C99.966 43.4808 101.141 42.8896 102.267 43.2991L102.286 43.3061L102.306 43.3115C103.434 43.6193 104.106 44.7596 103.882 46.1053L103.882 46.1053L103.881 46.1115L103.624 47.7833C102.726 52.6515 101.316 57.2681 99.5178 61.8926C99.5176 61.893 99.5175 61.8934 99.5173 61.8938L93.4503 77.2549C93.1728 77.8923 92.2967 78.3204 91.4779 78.1299C90.6554 77.8081 90.2095 77.0109 90.3934 76.2754Z" fill="#8C4219" stroke="#3C2F22"/>
<path d="M92.2332 77.4458L95.9791 61.3C97.1416 56.5208 98.6916 51.7417 100.629 47.2208L101.275 45.6708C101.792 44.5083 102.954 43.8625 104.117 43.9917C103.729 43.475 103.212 42.9583 102.567 42.7C101.146 42.3125 99.5957 42.9583 99.0791 44.25L98.4332 45.8C96.4957 50.3208 94.8166 54.9708 93.7832 59.8792L90.0374 76.025C89.7791 77.0583 90.4249 78.2208 91.4582 78.4792C91.7166 78.6083 92.1041 78.6083 92.3624 78.4792C92.1041 78.35 92.1041 77.8333 92.2332 77.4458Z" fill="#F0D5A8" fill-opacity="0.5"/>
<path d="M91.3292 78.6083C90.2958 78.2208 89.65 77.1875 89.9083 76.1542L93.6542 60.0083C94.8167 55.2292 96.3667 50.45 98.3042 45.9292L98.95 44.3792C99.5958 43.0875 101.017 42.3125 102.438 42.8292C103.858 43.2167 104.633 44.6375 104.375 46.1875L104.117 47.8667C103.213 52.775 101.792 57.425 99.9833 62.075L93.9125 77.4458C93.525 78.35 92.3625 78.8667 91.3292 78.6083Z" stroke="#3C2F22" stroke-width="2" stroke-miterlimit="10" stroke-linecap="round" stroke-linejoin="round"/>
<path d="M104.275 45.584L104.275 45.5838L104.263 45.5802L99.6199 44.1615C99.5316 44.1308 99.4888 44.0806 99.4779 44.0587C99.4761 44.0551 99.4754 44.0528 99.4752 44.052L99.4754 44.0508C99.4756 44.0496 99.4761 44.0475 99.4772 44.0444C99.4791 44.039 99.4833 44.0292 99.492 44.0155C100.169 43.0643 101.09 41.2178 101.491 40.0164L101.497 39.9982L101.502 39.9796C101.77 38.9078 101.904 37.7046 101.904 36.8875C101.904 36.8575 101.921 36.7846 102.047 36.7212C102.173 36.6586 102.389 36.6233 102.667 36.716L102.667 36.716L102.673 36.7179L105.884 37.7455C106.132 37.8475 106.288 37.9821 106.36 38.0943C106.421 38.1895 106.423 38.2604 106.382 38.3431C106.273 38.5616 106.155 38.7685 106.025 38.9959C105.923 39.1758 105.813 39.3686 105.694 39.5899C105.447 40.0508 105.202 40.571 105.057 41.1392C104.85 41.768 104.718 42.5768 104.622 43.3484C104.56 43.8384 104.51 44.3421 104.466 44.787C104.441 45.0446 104.417 45.2825 104.395 45.4864L104.392 45.514V45.5417C104.392 45.5535 104.389 45.5591 104.387 45.5622C104.385 45.5661 104.381 45.5719 104.372 45.5777C104.355 45.5888 104.322 45.5999 104.275 45.584Z" fill="#DAEDF7" stroke="#3C2F22"/>
<path d="M101.017 44.6375C101.533 43.7333 102.567 41.925 102.954 40.7625C103.212 39.7292 103.342 38.5667 103.342 37.7917C103.342 37.275 103.987 37.0167 104.762 37.1458L106.829 37.7917C106.7 37.5333 106.442 37.275 106.054 37.1458L102.825 36.1125C102.05 35.8542 101.404 36.2417 101.404 36.7583C101.404 37.5333 101.275 38.6958 101.017 39.7292C100.629 40.8917 99.7249 42.7 99.0791 43.6042C98.8208 43.9917 99.0791 44.3792 99.4666 44.5083L100.887 45.025C100.887 44.8958 100.887 44.7667 101.017 44.6375Z" fill="#E8F4FA"/>
<path d="M104.117 46.0583C104.504 46.1875 104.892 45.9292 104.892 45.5417C105.021 44.3792 105.15 42.4417 105.537 41.2792C105.796 40.2458 106.442 39.3417 106.829 38.5667C107.087 38.05 106.7 37.5333 106.054 37.275L102.825 36.2417C102.05 35.9833 101.404 36.3708 101.404 36.8875C101.404 37.6625 101.275 38.825 101.017 39.8583C100.629 41.0208 99.7249 42.8292 99.0791 43.7333C98.8208 44.1208 99.0791 44.5083 99.4666 44.6375L104.117 46.0583Z" stroke="#3C2F22" stroke-width="2" stroke-miterlimit="10" stroke-linecap="round" stroke-linejoin="round"/>
</svg>
