<svg width="170" height="100" viewBox="0 0 170 100" fill="none" xmlns="http://www.w3.org/2000/svg">
<path d="M99.958 15.7989C110.358 33.3989 122.958 27.399 138.958 41.799C163.958 64.299 125.458 92.799 102.458 97.299C61.6386 105.285 39.9578 90.799 41.4578 73.799C42.9578 56.799 17.458 46.2988 35.458 20.2988C53.458 -5.70117 86.958 -6.2011 99.958 15.7989Z" fill="#FCF3EC"/>
<ellipse cx="86.5" cy="79.2988" rx="20.5" ry="2" fill="#E0DCD7"/>
<path fill-rule="evenodd" clip-rule="evenodd" d="M107.855 62.4314L100.505 54.92C101.958 52.2494 102.791 49.1783 102.791 45.9059C102.791 35.6295 94.6308 27.2988 84.5638 27.2988C74.4979 27.2988 66.3364 35.6295 66.3364 45.9059C66.3364 49.1749 67.1683 52.2436 68.6182 54.912L61.2736 62.4107C60.8479 62.8445 60.948 63.7535 61.3737 64.1873C61.7546 64.5762 62.0468 64.513 62.0468 64.513H68.4801V71.0797C68.5054 71.3213 68.6205 71.5848 68.8023 71.7712C69.2268 72.205 70.0841 72.2741 70.5087 71.8403L78.6771 63.5027C80.525 64.1482 82.4995 64.5141 84.5626 64.5141C86.6188 64.5141 88.5887 64.1505 90.4332 63.5096L98.6166 71.8748C99.0412 72.3097 99.8984 72.2407 100.323 71.8057C100.505 71.6205 100.619 71.3558 100.645 71.1131V64.5383H107.078C107.078 64.5383 107.371 64.6016 107.752 64.2126C108.178 63.7765 108.28 62.8664 107.855 62.4314ZM91 48.7988C93.643 57.8429 92.3421 58.6838 84.5638 53.2988C76.7187 58.5895 75.9224 57.3095 78.6771 48.2988C71.1841 42.5237 72.5 41.2988 81 40.7988C84.2149 31.94 85.8955 31.8997 89 40.7988C96.5 40.7988 98.562 43.1169 91 48.7988Z" fill="#FFDA8E"/>
<path d="M109.436 63.2272L101.725 55.5063C103.25 52.7613 104.125 49.6046 104.125 46.2408C104.125 35.6782 95.5626 27.1158 85 27.1158C74.4374 27.1158 65.875 35.6782 65.875 46.2408C65.875 49.6001 66.7469 52.7546 68.2701 55.4985L60.5627 63.2047C60.1172 63.6502 60.2219 64.5862 60.6685 65.0317C61.0667 65.43 61.375 65.3658 61.375 65.3658H68.125V72.1158C68.152 72.3645 68.2724 72.6356 68.4636 72.8268C68.9091 73.2723 69.808 73.3432 70.2546 72.8977L78.8237 64.3275C80.7644 64.9901 82.8355 65.367 85 65.367C87.1577 65.367 89.2244 64.9935 91.1594 64.3342L99.7465 72.9326C100.192 73.3792 101.091 73.3095 101.537 72.8617C101.729 72.6705 101.848 72.3993 101.876 72.1507V65.3917H108.626C108.626 65.3917 108.932 65.457 109.333 65.0565C109.776 64.6087 109.882 63.6727 109.436 63.2272ZM70.3187 69.6003V64.1328C70.2906 63.8842 70.1984 63.6401 70.0082 63.45C69.6314 63.0731 69.3265 63.1226 69.3265 63.1226L63.8579 63.1406L69.5357 57.4627C71.3526 59.9613 73.7534 61.9953 76.5445 63.3768L70.3187 69.6003ZM84.9989 63.1147C75.6794 63.1147 68.1239 55.5592 68.1239 46.2397C68.1239 36.9202 75.6794 29.3647 84.9989 29.3647C94.3184 29.3647 101.874 36.9202 101.874 46.2397C101.874 55.5592 94.3184 63.1147 84.9989 63.1147ZM100.671 63.144C100.671 63.144 100.366 63.0945 99.9906 63.4713C99.7994 63.6626 99.7082 63.9067 99.6812 64.1553V69.6296L93.4397 63.3802C96.2342 62.001 98.6384 59.967 100.456 57.4683L106.142 63.1608L100.671 63.144ZM89.6541 40.3897C86.6189 31.6901 83.5285 31.671 80.3852 40.3323C71.1152 40.5112 70.1421 43.4227 77.467 49.0691C74.7726 57.879 77.26 59.697 84.9314 54.5253C92.5375 59.7915 95.0485 58.0027 92.4644 49.1602C99.8579 43.605 98.9207 40.6822 89.6541 40.3897ZM89.7306 47.844C92.6039 56.0835 91.7815 56.6617 84.9449 51.1571C78.1712 56.7438 77.4344 56.1116 80.2007 47.7877C73.3315 43.632 73.4575 42.3911 82.0547 42.3911C84.4386 34.4733 85.558 34.4497 87.9441 42.4248C96.4716 42.4248 96.7855 43.6038 89.7306 47.844Z" fill="#3C2F22"/>
</svg>
