<svg width="28" height="28" viewBox="0 0 28 28" fill="none" xmlns="http://www.w3.org/2000/svg">
<path d="M14 0C6.3 0 0 6.3 0 14C0 21.7 6.3 28 14 28C21.7 28 28 21.7 28 14C28 6.3 21.7 0 14 0ZM14 26.0909C7.31818 26.0909 1.90909 20.6818 1.90909 14C1.90909 7.31818 7.31818 1.90909 14 1.90909C20.6818 1.90909 26.0909 7.31818 26.0909 14C26.0909 20.6818 20.6818 26.0909 14 26.0909Z" fill="#4E372A"/>
<path d="M20.3629 13.3636H14.6357V6.36363C14.6357 5.85454 14.1902 5.40909 13.6811 5.40909C13.172 5.40909 12.7266 5.85454 12.7266 6.36363V15.2727H13.9993H14.6357H20.3629C20.872 15.2727 21.3175 14.8273 21.3175 14.3182C21.3175 13.8091 20.872 13.3636 20.3629 13.3636Z" fill="#4E372A"/>
</svg>
