<svg width="30" height="30" viewBox="0 0 30 30" fill="none" xmlns="http://www.w3.org/2000/svg">
<path d="M0 8.56522C0 3.83478 3.83478 0 8.56522 0H21.4131C26.1435 0 29.9783 3.83478 29.9783 8.56522V21.4131C29.9783 26.1435 26.1435 29.9783 21.4131 29.9783H8.56522C3.83478 29.9783 0 26.1435 0 21.4131V8.56522Z" fill="#3F51B5"/>
<path d="M23.9071 16.0127H21.0694V26.9688H16.8555V16.0127H14.3271V12.6416H16.8555V10.6104C16.8588 7.6541 18.0867 5.89941 21.5698 5.89941H24.4405V9.27052H22.5146C21.1582 9.27052 21.0694 9.7775 21.0694 10.7223V12.6416H24.4405L23.9071 16.0127Z" fill="white"/>
</svg>
