<svg width="22" height="21" viewBox="0 0 22 21" fill="none" xmlns="http://www.w3.org/2000/svg">
<path d="M0.767857 4.36263H2.15001C2.50834 5.5535 3.58333 6.43372 4.8631 6.43372C6.14286 6.43372 7.21785 5.5535 7.57618 4.36263H20.7321C21.1417 4.36263 21.5 4.00019 21.5 3.58597C21.5 3.17175 21.1417 2.80931 20.7321 2.80931H7.57618C7.21785 1.61843 6.14286 0.73822 4.8631 0.73822C3.58333 0.73822 2.50834 1.61843 2.15001 2.80931H0.767857C0.358333 2.80931 0 3.17175 0 3.58597C0 4.00019 0.358333 4.36263 0.767857 4.36263ZM4.8631 2.29154C5.57976 2.29154 6.14286 2.86109 6.14286 3.58597C6.14286 4.31085 5.57976 4.8804 4.8631 4.8804C4.14643 4.8804 3.58333 4.31085 3.58333 3.58597C3.58333 2.86109 4.14643 2.29154 4.8631 2.29154Z" fill="white"/>
<path d="M20.7321 10.0581H13.3607C12.9512 9.02257 11.9274 8.24591 10.75 8.24591C9.57262 8.24591 8.54882 9.02257 8.1393 10.0581H0.767857C0.358333 10.0581 0 10.4206 0 10.8348C0 11.249 0.358333 11.6114 0.767857 11.6114H7.9857C8.24165 12.9577 9.36786 13.9414 10.75 13.9414C12.1321 13.9414 13.2583 12.9577 13.5143 11.6114H20.7321C21.1417 11.6114 21.5 11.249 21.5 10.8348C21.5 10.4206 21.1417 10.0581 20.7321 10.0581ZM10.75 12.3881C10.0333 12.3881 9.47024 11.8186 9.47024 11.0937C9.47024 10.3688 10.0333 9.79924 10.75 9.79924C11.4667 9.79924 12.0298 10.3688 12.0298 11.0937C12.0298 11.8186 11.4667 12.3881 10.75 12.3881Z" fill="white"/>
<path d="M20.7321 17.307H19.35C18.9917 16.1161 17.9167 15.2359 16.6369 15.2359C15.3571 15.2359 14.2821 16.1161 13.9238 17.307H0.767857C0.358333 17.307 0 17.6694 0 18.0837C0 18.4979 0.358333 18.8603 0.767857 18.8603H13.9238C14.2821 20.0512 15.3571 20.9314 16.6369 20.9314C17.9167 20.9314 18.9917 20.0512 19.35 18.8603H20.7321C21.1417 18.8603 21.5 18.4979 21.5 18.0837C21.5 17.6694 21.1417 17.307 20.7321 17.307ZM16.6369 19.3781C15.9202 19.3781 15.3571 18.8085 15.3571 18.0837C15.3571 17.3588 15.9202 16.7892 16.6369 16.7892C17.3536 16.7892 17.9167 17.3588 17.9167 18.0837C17.9167 18.8085 17.3536 19.3781 16.6369 19.3781Z" fill="white"/>
</svg>
