<svg width="21" height="21" viewBox="0 0 21 21" fill="none" xmlns="http://www.w3.org/2000/svg">
<path d="M7.41177 0H1.58824C0.688235 0 0 0.688235 0 1.58824V7.41177C0 8.31176 0.688235 9 1.58824 9H7.41177C8.31176 9 9 8.31176 9 7.41177V1.58824C9 0.688235 8.31176 0 7.41177 0ZM7.41177 7.41177H1.58824V1.58824H7.41177V7.41177Z" fill="#4E372A"/>
<path d="M19.4118 0H13.5882C12.6882 0 12 0.688235 12 1.58824V7.41177C12 8.31176 12.6882 9 13.5882 9H19.4118C20.3118 9 21 8.31176 21 7.41177V1.58824C21 0.688235 20.3118 0 19.4118 0ZM19.4118 7.41177H13.5882V1.58824H19.4118V7.41177Z" fill="#4E372A"/>
<path d="M7.41177 12H1.58824C0.688235 12 0 12.6882 0 13.5882V19.4118C0 20.3118 0.688235 21 1.58824 21H7.41177C8.31176 21 9 20.3118 9 19.4118V13.5882C9 12.6882 8.31176 12 7.41177 12ZM7.41177 19.4118H1.58824V13.5882H7.41177V19.4118Z" fill="#4E372A"/>
<path d="M19.4118 12H13.5882C12.6882 12 12 12.6882 12 13.5882V19.4118C12 20.3118 12.6882 21 13.5882 21H19.4118C20.3118 21 21 20.3118 21 19.4118V13.5882C21 12.6882 20.3118 12 19.4118 12ZM19.4118 19.4118H13.5882V13.5882H19.4118V19.4118Z" fill="#4E372A"/>
</svg>
