<svg width="31" height="30" viewBox="0 0 31 30" fill="none" xmlns="http://www.w3.org/2000/svg">
<path d="M22.2447 29.9783H8.92105C4.34103 29.9783 0.59375 26.231 0.59375 21.651V8.3273C0.59375 3.74728 4.34103 0 8.92105 0H22.2447C26.8247 0 30.572 3.74728 30.572 8.3273V21.651C30.572 26.231 26.8247 29.9783 22.2447 29.9783Z" fill="#304FFE"/>
<path d="M0.59375 8.3273V21.651C0.59375 26.231 4.34103 29.9783 8.92105 29.9783H22.2447C26.8247 29.9783 30.572 26.231 30.572 21.651V8.3273C30.572 7.49457 30.4887 6.74511 30.2389 5.99565C25.5756 2.24837 19.58 0 13.0847 0C10.0036 0 7.00577 0.499638 4.17449 1.49891C2.00939 2.99783 0.59375 5.49602 0.59375 8.3273Z" fill="#304FFE" fill-opacity="0.2902"/>
<path d="M13.0847 1.66553C8.92105 1.66553 5.09049 2.6648 1.59303 4.33026C0.926842 5.57936 0.59375 6.91173 0.59375 8.32737V21.651C0.59375 26.2311 4.34103 29.9783 8.92105 29.9783H22.2447C26.8247 29.9783 30.572 26.2311 30.572 21.651V8.49391C25.992 4.24699 19.8298 1.66553 13.0847 1.66553Z" fill="#6200EA"/>
<path d="M30.572 10.8256C26.1586 6.24561 19.9964 3.33105 13.0847 3.33105C8.58796 3.33105 4.34103 4.58015 0.760296 6.74525C0.677023 7.24489 0.59375 7.74452 0.59375 8.32743V21.6511C0.59375 26.2311 4.34103 29.9784 8.92105 29.9784H22.2447C26.8247 29.9784 30.572 26.2311 30.572 21.6511V10.8256Z" fill="#673AB7"/>
<path d="M30.572 13.3239C26.4916 8.24423 20.1629 4.99658 13.0847 4.99658C8.42141 4.99658 4.17449 6.41222 0.59375 8.82714V21.6512C0.59375 26.2312 4.34103 29.9785 8.92105 29.9785H22.2447C26.8247 29.9785 30.572 26.2312 30.572 21.6512V13.3239Z" fill="#8E24AA"/>
<path d="M30.572 21.6498V16.1538C26.8247 10.4912 20.4127 6.66064 13.0847 6.66064C8.42141 6.66064 4.09122 8.24283 0.59375 10.8243V21.6498C0.59375 26.2298 4.34103 29.9771 8.92105 29.9771H22.2447C26.8247 29.9771 30.572 26.2298 30.572 21.6498Z" fill="#C2185B"/>
<path d="M30.572 21.6484V19.6498C27.5742 12.988 20.9124 8.32471 13.0847 8.32471C8.33814 8.32471 3.92467 10.0734 0.59375 12.988V21.6484C0.59375 26.2284 4.34103 29.9757 8.92105 29.9757H22.2447C26.8247 29.9757 30.572 26.2284 30.572 21.6484Z" fill="#D81B60"/>
<path d="M30.2389 23.9825C28.6567 15.9883 21.5785 9.99268 13.0847 9.99268C8.17159 9.99268 3.75812 11.9912 0.59375 15.2389V21.6509C0.59375 26.2309 4.34103 29.9782 8.92105 29.9782H22.2447C25.992 29.9782 29.2397 27.48 30.2389 23.9825Z" fill="#F50057"/>
<path d="M28.8233 26.6469C28.4069 18.3196 21.5785 11.6577 13.0847 11.6577C8.00505 11.6577 3.5083 14.0726 0.59375 17.8199V21.6505C0.59375 26.2305 4.34103 29.9778 8.92105 29.9778H22.2447C24.9095 29.9778 27.3244 28.6454 28.8233 26.6469Z" fill="#FF1744"/>
<path d="M13.0847 13.3237C7.67195 13.3237 3.00867 16.3216 0.59375 20.8183V21.651C0.59375 26.231 4.34103 29.9783 8.92105 29.9783H22.2447C24.0767 29.9783 25.8255 29.3954 27.1578 28.3129C27.1578 28.063 27.2411 27.73 27.2411 27.4801C27.2411 19.6525 20.9124 13.3237 13.0847 13.3237Z" fill="#FF5722"/>
<path d="M13.0843 14.9893C7.25524 14.9893 2.42541 18.9031 1.00977 24.3158C2.09231 27.6468 5.25669 29.9784 8.9207 29.9784H22.2444C23.4102 29.9784 24.4095 29.7286 25.4087 29.3122C25.492 28.7293 25.5753 28.0631 25.5753 27.4802C25.5753 20.5685 19.996 14.9893 13.0843 14.9893Z" fill="#FF6F00"/>
<path d="M13.085 16.6548C7.33915 16.6548 2.67587 21.0683 2.34277 26.6475C3.84169 28.6461 6.2566 29.9785 8.92134 29.9785H22.245C22.7447 29.9785 23.161 29.8952 23.6607 29.8119C23.8272 29.0625 23.9105 28.313 23.9105 27.4803C23.9105 21.4846 19.0806 16.6548 13.085 16.6548Z" fill="#FF9800"/>
<path d="M21.9118 29.9785C22.1616 29.1458 22.2449 28.3131 22.2449 27.4803C22.2449 22.4007 18.1645 18.3203 13.0848 18.3203C8.00518 18.3203 3.9248 22.4007 3.9248 27.4803C3.9248 27.7302 3.92481 28.0633 4.00808 28.3131C5.42372 29.3123 7.08918 29.9785 8.92118 29.9785H21.9118Z" fill="#FFC107"/>
<path d="M13.0844 19.9849C8.92076 19.9849 5.58984 23.3158 5.58984 27.4794C5.58984 28.1456 5.67312 28.8118 5.83966 29.3947C6.75567 29.8111 7.83821 29.9776 8.92076 29.9776H20.1626C20.4124 29.2282 20.579 28.3954 20.579 27.4794C20.579 23.3158 17.2481 19.9849 13.0844 19.9849Z" fill="#FFD54F"/>
<path d="M13.085 21.7344C9.83732 21.7344 7.25586 24.3158 7.25586 27.5635C7.25586 28.3962 7.42241 29.1457 7.7555 29.8951C8.17186 29.9784 8.50495 29.9784 8.92132 29.9784H18.4144C18.7475 29.2289 18.9141 28.3962 18.9141 27.5635C18.9141 24.3158 16.3326 21.7344 13.085 21.7344Z" fill="#FFE082"/>
<path d="M13.0845 23.3994C10.7529 23.3994 8.9209 25.2314 8.9209 27.5631C8.9209 28.4791 9.25399 29.3118 9.75363 29.978H16.4155C16.9151 29.3118 17.2482 28.4791 17.2482 27.5631C17.2482 25.2314 15.4162 23.3994 13.0845 23.3994Z" fill="#FFECB3"/>
<path d="M20.5794 26.6475H10.5866C6.92263 26.6475 3.9248 23.6497 3.9248 19.9857V9.99289C3.9248 6.32888 6.92263 3.33105 10.5866 3.33105H20.5794C24.2434 3.33105 27.2412 6.32888 27.2412 9.99289V19.9857C27.2412 23.6497 24.2434 26.6475 20.5794 26.6475ZM10.5866 4.99651C7.83863 4.99651 5.59026 7.24488 5.59026 9.99289V19.9857C5.59026 22.7337 7.83863 24.982 10.5866 24.982H20.5794C23.3274 24.982 25.5758 22.7337 25.5758 19.9857V9.99289C25.5758 7.24488 23.3274 4.99651 20.5794 4.99651H10.5866Z" fill="white"/>
<path d="M15.583 20.815C12.3354 20.815 9.75391 18.2335 9.75391 14.9858C9.75391 11.7382 12.3354 9.15674 15.583 9.15674C18.8307 9.15674 21.4121 11.7382 21.4121 14.9858C21.4121 18.2335 18.8307 20.815 15.583 20.815ZM15.583 10.8222C13.2514 10.8222 11.4194 12.6542 11.4194 14.9858C11.4194 17.3175 13.2514 19.1495 15.583 19.1495C17.9147 19.1495 19.7467 17.3175 19.7467 14.9858C19.7467 12.6542 17.9147 10.8222 15.583 10.8222Z" fill="white"/>
<path d="M22.2446 8.32736C22.2446 8.827 21.9115 9.16009 21.4118 9.16009C20.9122 9.16009 20.5791 8.827 20.5791 8.32736C20.5791 7.82772 20.9122 7.49463 21.4118 7.49463C21.9115 7.49463 22.2446 7.82772 22.2446 8.32736Z" fill="white"/>
</svg>
