<svg width="11" height="15" viewBox="0 0 11 15" fill="none" xmlns="http://www.w3.org/2000/svg">
<path d="M0.940194 3.58878C0.883351 2.78338 1.06199 1.99002 1.53499 1.35191C1.94506 0.773427 2.47897 0.4575 3.12249 0.272873C3.66452 0.112059 4.01978 0.309102 4.17609 0.91172C4.3994 1.81266 4.71812 2.71364 4.83384 3.66226C4.87038 4.07988 4.60039 4.67036 4.30806 4.97447C3.57521 5.69597 3.72747 6.22103 4.2837 7.31304C4.45626 7.6651 4.73032 8.27374 5.26423 9.07938C5.82046 9.89099 6.11482 10.3266 6.8294 9.95711C7.62315 9.55778 8.20172 9.81459 8.80059 10.4592C9.2066 10.9247 9.65321 11.3246 10.0592 11.7902C10.6459 12.4825 10.6195 12.9597 10.1607 13.4487C9.3345 14.3491 7.97031 14.6468 6.95528 14.0437C6.39498 13.7153 5.83671 13.2855 5.39213 12.7842C3.43312 10.552 2.0202 7.95625 1.16959 5.02664C1.03358 4.53142 0.970646 4.03026 0.940194 3.58878Z" fill="#4E372A"/>
</svg>
