<svg width="21" height="30" viewBox="0 0 21 30" fill="none" xmlns="http://www.w3.org/2000/svg">
<path d="M1.51137 8.34368C1.40322 6.8114 1.74309 5.30203 2.64297 4.08803C3.42313 2.98748 4.43888 2.38643 5.66319 2.03517C6.69439 1.72923 7.37027 2.1041 7.66766 3.25058C8.0925 4.96461 8.69887 6.67873 8.91902 8.48346C8.98854 9.27799 8.47487 10.4014 7.91872 10.9799C6.52448 12.3526 6.81415 13.3515 7.87239 15.4291C8.20067 16.0989 8.72207 17.2568 9.73783 18.7895C10.7961 20.3336 11.3561 21.1624 12.7156 20.4594C14.2257 19.6997 15.3264 20.1883 16.4657 21.4146C17.2382 22.3003 18.0879 23.0611 18.8603 23.9468C19.9765 25.2639 19.9263 26.1719 19.0534 27.1021C17.4815 28.8152 14.8861 29.3814 12.955 28.2342C11.8891 27.6094 10.827 26.7917 9.98116 25.8379C6.25415 21.5913 3.56607 16.6528 1.9478 11.0792C1.68903 10.137 1.5693 9.1836 1.51137 8.34368Z" stroke="#4E372A" stroke-width="2" stroke-miterlimit="10"/>
</svg>
