<svg width="25" height="30" viewBox="0 0 25 30" fill="none" xmlns="http://www.w3.org/2000/svg">
<path d="M12.636 0C6.09055 0 0.363281 5.72727 0.363281 12.2727C0.363281 14.3182 1.24965 16.5 1.99965 17.9318C1.99965 18 2.06783 18.0682 2.06783 18.0682C9.49965 30 11.6815 30 12.636 30C14.136 30 15.7042 28.9773 19.4542 23.6591C21.4315 20.9318 23.136 18.2045 23.2042 18.0682C23.2042 18 23.2724 17.9318 23.2724 17.9318C24.0224 16.5 24.9087 14.3182 24.9087 12.2727C24.9087 5.72727 19.1815 0 12.636 0ZM21.4996 17.0455C21.4996 17.0455 14.6815 27.9545 12.636 27.9545C10.5906 27.9545 3.77237 17.0455 3.77237 17.0455C3.09055 15.75 2.40874 13.9091 2.40874 12.2727C2.40874 6.81818 7.18146 2.04545 12.636 2.04545C18.0906 2.04545 22.8633 6.81818 22.8633 12.2727C22.8633 13.8409 22.1133 15.6818 21.4996 17.0455Z" fill="#4E372A"/>
<path d="M12.6362 6.13635C9.63619 6.13635 7.18164 8.5909 7.18164 11.5909C7.18164 14.5909 9.63619 17.0454 12.6362 17.0454C15.6362 17.0454 18.0907 14.5909 18.0907 11.5909C18.0907 8.5909 15.6362 6.13635 12.6362 6.13635ZM12.6362 15C10.7271 15 9.2271 13.5 9.2271 11.5909C9.2271 9.68181 10.7271 8.18181 12.6362 8.18181C14.5453 8.18181 16.0453 9.68181 16.0453 11.5909C16.0453 13.5 14.5453 15 12.6362 15Z" fill="#4E372A"/>
</svg>
