<svg width="31" height="30" viewBox="0 0 31 30" fill="none" xmlns="http://www.w3.org/2000/svg">
<path d="M0.957031 8.46776C0.957031 3.79115 4.74818 0 9.4248 0H22.1264C26.8031 0 30.5942 3.79115 30.5942 8.46776V21.1694C30.5942 25.846 26.8031 29.6372 22.1264 29.6372H9.42479C4.74818 29.6372 0.957031 25.846 0.957031 21.1694V8.46776Z" fill="#34B2E2"/>
<path fill-rule="evenodd" clip-rule="evenodd" d="M25.3639 9.70122C24.6913 10.0173 23.9662 10.2297 23.206 10.326C23.9821 9.83683 24.5777 9.05957 24.8587 8.13493C24.1335 8.58941 23.3292 8.91948 22.4734 9.096C21.7875 8.32547 20.8121 7.84521 19.7321 7.84521C17.6571 7.84521 15.9751 9.6194 15.9751 11.8071C15.9751 12.1159 16.0091 12.4202 16.0739 12.7088C12.9518 12.5424 10.1834 10.9666 8.33147 8.56923C8.009 9.15596 7.82413 9.83683 7.82413 10.5603C7.82413 11.936 8.485 13.1487 9.49491 13.8582C8.87972 13.8386 8.2996 13.6598 7.79225 13.3633V13.4138C7.79225 15.3337 9.08744 16.9336 10.8055 17.2984C10.4899 17.3869 10.1579 17.4351 9.81791 17.4351C9.57513 17.4351 9.33979 17.4121 9.11028 17.3662C9.58841 18.9403 10.976 20.0841 12.6187 20.1154C11.333 21.1774 9.71432 21.8117 7.95481 21.8117C7.65094 21.8117 7.35078 21.7932 7.05859 21.7557C8.71982 22.8787 10.6945 23.5355 12.8163 23.5355C19.7257 23.5355 23.5035 17.5001 23.5035 12.2644C23.5035 12.0935 23.4982 11.922 23.4923 11.7534C24.2244 11.1958 24.8608 10.4981 25.3639 9.70122Z" fill="white"/>
</svg>
