<svg width="31" height="30" viewBox="0 0 31 30" fill="none" xmlns="http://www.w3.org/2000/svg">
<path d="M0.978516 8.56522C0.978516 3.83478 4.8133 0 9.54374 0H22.3916C27.122 0 30.9568 3.83478 30.9568 8.56522V21.4131C30.9568 26.1435 27.122 29.9783 22.3916 29.9783H9.54374C4.8133 29.9783 0.978516 26.1435 0.978516 21.4131V8.56522Z" fill="#0288D1"/>
<path d="M23.6806 18.0011C25.4352 19.6439 25.8007 20.4472 25.8599 20.5459C26.5842 21.764 25.0567 21.8595 25.0567 21.8595L22.13 21.9023C22.13 21.9023 21.4979 22.0274 20.6716 21.4513C19.5753 20.6941 18.0774 18.7188 17.2741 18.9756C16.4577 19.2357 16.7178 21.3064 16.7178 21.3064C16.7178 21.3064 16.7244 21.5599 16.54 21.764C16.3359 21.978 15.9408 21.8957 15.9408 21.8957H15.0981C15.0981 21.8957 11.9739 21.9089 9.42578 19.2291C6.65055 16.309 4.32962 10.8474 4.32962 10.8474C4.32962 10.8474 4.18806 10.5018 4.3395 10.3174C4.51398 10.11 4.98475 10.1133 4.98475 10.1133H8.11553C8.11553 10.1133 8.40852 10.1528 8.61922 10.3108C8.79699 10.4392 8.89246 10.6828 8.89246 10.6828C8.89246 10.6828 9.27105 11.7001 9.94264 12.8721C11.2496 15.1568 11.8586 15.6572 12.3031 15.4103C12.9483 15.0514 12.7541 12.1807 12.7541 12.1807C12.7541 12.1807 12.7673 11.1371 12.4282 10.6729C12.1648 10.3108 11.6743 10.2055 11.457 10.1758C11.2792 10.1561 11.5689 9.74128 11.9442 9.55692C12.5072 9.28038 13.5047 9.26063 14.68 9.2738C15.5952 9.28368 15.9408 9.27051 15.9408 9.27051C17.0206 9.53388 16.6552 10.5544 16.6552 12.9906C16.6552 13.7741 16.5137 14.8737 17.0733 15.2358C17.3136 15.3971 18.1762 15.4201 19.6412 12.9017C20.3391 11.7067 20.8889 10.5841 20.8889 10.5841C20.8889 10.5841 21.0074 10.3306 21.1819 10.2252C21.3662 10.1133 21.6098 10.1133 21.6098 10.1133L24.9052 10.1297C24.9052 10.1297 25.8961 10.0046 26.0542 10.459C26.2221 10.933 25.6492 11.7626 24.3061 13.5766C22.0938 16.5559 21.8469 16.2794 23.6806 18.0011Z" fill="white"/>
</svg>
