<svg width="35" height="35" viewBox="0 0 35 35" fill="none" xmlns="http://www.w3.org/2000/svg">
<path fill-rule="evenodd" clip-rule="evenodd" d="M2.46278 26.0126L0 35L9.19794 32.5872C11.7321 33.9685 14.5839 34.6966 17.4893 34.6966H17.4964C27.0549 34.6966 34.8394 26.9192 34.843 17.3537C34.8465 12.7208 33.0405 8.36274 29.7675 5.08617C26.4909 1.80961 22.1364 0.00356901 17.4964 0C7.93086 0 0.149908 7.78095 0.146339 17.343C0.146339 20.3982 0.94228 23.3821 2.46278 26.0126ZM17.4998 2.93048C21.351 2.93048 24.9702 4.43313 27.6936 7.15646C30.4169 9.87979 31.916 13.5026 31.9124 17.3538C31.9088 25.3025 25.4414 31.77 17.4962 31.77H17.4891C14.9014 31.77 12.3637 31.074 10.1507 29.7605L9.62247 29.4464L4.1651 30.8777L5.62135 25.5595L5.27871 25.0134C3.83673 22.7184 3.07291 20.0664 3.07291 17.3431C3.07648 9.39438 9.54752 2.93048 17.4998 2.93048Z" fill="#4E372A"/>
<path fill-rule="evenodd" clip-rule="evenodd" d="M13.3523 9.99195C13.0542 9.27494 12.7398 9.26082 12.4548 9.25022C12.2222 9.23962 11.9569 9.23962 11.6916 9.23962C11.4296 9.23962 10.9972 9.34558 10.6336 9.77649C10.2668 10.2039 9.23828 11.2423 9.23828 13.3544C9.23828 15.4631 10.6664 17.5046 10.8629 17.7907C11.0627 18.0732 13.6176 22.5448 17.6595 24.2649C21.0201 25.6918 21.7047 25.4093 22.4319 25.3386C23.1623 25.2644 24.7869 24.3002 25.1177 23.2971C25.4486 22.2975 25.4486 21.4393 25.3503 21.2591C25.252 21.079 24.9867 20.973 24.5871 20.7576C24.1908 20.5421 22.2353 19.5072 21.8685 19.3624C21.5049 19.2211 21.2396 19.1505 20.9743 19.5779C20.709 20.0053 19.9458 20.973 19.7132 21.2591C19.4807 21.5452 19.2514 21.5805 18.8518 21.3686C18.4554 21.1532 17.1747 20.7011 15.6549 19.2388C14.4725 18.1015 13.6733 16.6993 13.4407 16.2684C13.2081 15.841 13.4145 15.6079 13.6143 15.3924C13.7945 15.2017 14.0139 14.8909 14.2137 14.6401C14.4102 14.3893 14.4758 14.2127 14.61 13.9266C14.7411 13.6405 14.6756 13.3898 14.5773 13.1743C14.479 12.9589 13.706 10.8396 13.3523 9.99195Z" fill="#4E372A"/>
</svg>
