<svg width="31" height="30" viewBox="0 0 31 30" fill="none" xmlns="http://www.w3.org/2000/svg">
<path d="M0.572266 8.56522C0.572266 3.83478 4.40705 0 9.13749 0H21.9853C26.7158 0 30.5505 3.83478 30.5505 8.56522V21.4131C30.5505 26.1435 26.7158 29.9783 21.9853 29.9783H9.13749C4.40705 29.9783 0.572266 26.1435 0.572266 21.4131V8.56522Z" fill="#F44336"/>
<path d="M8.24609 3.21191H9.69967L10.6375 6.97143H10.7284L11.6235 3.21459H13.0904L11.4098 8.71091V12.7884H9.9642V8.88727L8.24609 3.21191Z" fill="white"/>
<path d="M13.0234 7.26281C13.0234 6.72841 13.1971 6.29821 13.5445 5.98292C13.8892 5.66227 14.3514 5.50195 14.9366 5.50195C15.4683 5.50195 15.9012 5.67029 16.2405 6.00696C16.5799 6.34097 16.7482 6.77383 16.7482 7.30289V10.8834C16.7482 11.4766 16.5826 11.9415 16.2512 12.2808C15.9199 12.6202 15.463 12.7885 14.8778 12.7885C14.314 12.7885 13.8678 12.6122 13.5284 12.2648C13.1918 11.9175 13.0234 11.4472 13.0234 10.8593V7.26281ZM14.3434 10.9876C14.3434 11.1773 14.3888 11.3269 14.485 11.4311C14.5759 11.5327 14.7041 11.5835 14.8751 11.5835C15.0488 11.5835 15.1851 11.5327 15.2893 11.4258C15.3908 11.3216 15.4443 11.1746 15.4443 10.9876V7.21204C15.4443 7.05974 15.3882 6.93682 15.284 6.8433C15.1824 6.75245 15.0435 6.70436 14.8751 6.70436C14.7202 6.70436 14.5892 6.75245 14.493 6.8433C14.3942 6.93682 14.3434 7.05974 14.3434 7.21204V10.9876Z" fill="white"/>
<path d="M21.5025 5.67871V12.7889H20.2199V11.9232C19.9821 12.2064 19.7389 12.4202 19.4797 12.5672C19.2259 12.7141 18.9774 12.7889 18.7369 12.7889C18.4403 12.7889 18.2186 12.6874 18.0662 12.479C17.9166 12.2732 17.8418 11.966 17.8418 11.5518V5.67871H19.1244V11.0735C19.1244 11.2338 19.1511 11.3541 19.2045 11.4289C19.258 11.4984 19.3461 11.5384 19.4664 11.5384C19.5626 11.5384 19.6801 11.4903 19.8218 11.3915C19.9687 11.2953 20.0996 11.1697 20.2199 11.0201V5.67871H21.5025Z" fill="white"/>
<path d="M25.9357 17.1918C25.9357 15.5912 24.6077 14.2926 22.9724 14.2926C20.6397 14.1938 18.251 14.1537 15.8114 14.1564C13.3745 14.1537 10.9858 14.1965 8.65043 14.2926C7.01783 14.2926 5.68984 15.5912 5.68984 17.1918C5.59365 18.4583 5.54823 19.7275 5.5509 20.9967C5.54823 22.2659 5.59098 23.5325 5.68984 24.8017C5.68984 26.4049 7.01516 27.7035 8.65043 27.7035C10.9858 27.7997 13.3745 27.8397 15.8114 27.8371C18.2483 27.8424 20.6397 27.7997 22.9724 27.7035C24.6077 27.7035 25.9357 26.4049 25.9357 24.8017C26.0319 23.5325 26.0773 22.2659 26.0719 20.9967C26.0773 19.7275 26.0319 18.4583 25.9357 17.1918Z" fill="white"/>
<path d="M22.5509 19.8599C22.4012 19.8599 22.2997 19.8973 22.2383 19.9828C22.1928 20.0442 22.1367 20.1858 22.1367 20.4958V21.0249H22.9544V20.4958C22.9544 20.1912 22.8982 20.0469 22.8501 19.9774C22.7914 19.8973 22.6952 19.8599 22.5509 19.8599Z" fill="#B90D00"/>
<path d="M17.7701 19.893C17.7113 19.9224 17.6552 19.9652 17.5938 20.0239V24.0426C17.6712 24.1201 17.7434 24.1736 17.8102 24.2083C17.8877 24.2484 17.9652 24.2644 18.048 24.2644C18.2056 24.2644 18.2537 24.203 18.2698 24.1789C18.3098 24.1308 18.3526 24.0293 18.3526 23.8102V20.3873C18.3526 20.1976 18.3152 20.0507 18.2484 19.9598C18.1575 19.8369 17.9758 19.7888 17.7701 19.893Z" fill="#B90D00"/>
<path d="M25.9357 17.1918C25.9357 15.5912 24.6077 14.2926 22.9724 14.2926C20.6397 14.1938 18.251 14.1537 15.8114 14.1564C13.3745 14.1537 10.9858 14.1965 8.65043 14.2926C7.01783 14.2926 5.68984 15.5912 5.68984 17.1918C5.59365 18.4583 5.54823 19.7275 5.5509 20.9967C5.54823 22.2659 5.59098 23.5325 5.68984 24.8017C5.68984 26.4049 7.01516 27.7035 8.65043 27.7035C10.9858 27.7997 13.3745 27.8397 15.8114 27.8371C18.2483 27.8424 20.6397 27.7997 22.9724 27.7035C24.6077 27.7035 25.9357 26.4049 25.9357 24.8017C26.0319 23.5325 26.0773 22.2659 26.0719 20.9967C26.0773 19.7275 26.0319 18.4583 25.9357 17.1918ZM10.1334 25.3628C10.1334 25.4376 10.0719 25.5017 9.99445 25.5017H8.59165C8.51416 25.5017 8.45003 25.4376 8.45003 25.3628V17.817H7.14075C7.06593 17.817 7.0018 17.7556 7.0018 17.6781V16.3768C7.0018 16.2993 7.06593 16.2352 7.14075 16.2352H11.4454C11.5228 16.2352 11.587 16.2993 11.587 16.3768V17.6781C11.587 17.7556 11.5228 17.817 11.4454 17.817H10.1334V25.3628ZM15.1247 25.3628C15.1247 25.4376 15.0606 25.5017 14.9831 25.5017H13.7379C13.6578 25.5017 13.5963 25.4376 13.5963 25.3628V24.986C13.4307 25.1437 13.2623 25.2719 13.0913 25.3681C12.8188 25.5231 12.5596 25.5979 12.2977 25.5979C11.9637 25.5979 11.7072 25.4777 11.5335 25.2452C11.3705 25.0234 11.2877 24.6948 11.2877 24.2726V18.7309C11.2877 18.656 11.3492 18.5919 11.4293 18.5919H12.6745C12.752 18.5919 12.8134 18.656 12.8134 18.7309V23.813C12.8134 23.9787 12.8455 24.0482 12.8642 24.0749C12.8722 24.0856 12.8989 24.1203 13.0031 24.1203C13.0405 24.1203 13.1207 24.1043 13.2703 24.0054C13.3906 23.9252 13.4975 23.8264 13.5937 23.7142V18.7309C13.5937 18.656 13.6578 18.5919 13.7353 18.5919H14.9804C15.0579 18.5919 15.122 18.656 15.122 18.7309V25.3628H15.1247ZM19.9156 23.9867C19.9156 24.4917 19.8061 24.8845 19.5923 25.157C19.3679 25.443 19.0472 25.5846 18.6357 25.5846C18.3739 25.5846 18.1334 25.5311 17.9196 25.4242C17.8074 25.3681 17.6979 25.2933 17.5937 25.2025V25.3628C17.5937 25.4403 17.5295 25.5017 17.452 25.5017H16.1962C16.116 25.5017 16.0546 25.4403 16.0546 25.3628V16.3741C16.0546 16.2967 16.116 16.2352 16.1962 16.2352H17.452C17.5295 16.2352 17.5937 16.2967 17.5937 16.3741V18.9179C17.6952 18.8244 17.8047 18.7469 17.917 18.6828C18.1281 18.5652 18.3445 18.5064 18.5609 18.5064C18.9991 18.5064 19.3411 18.6694 19.5763 18.99C19.8007 19.2973 19.913 19.7435 19.913 20.3127L19.9156 23.9867ZM24.5195 22.2045C24.5195 22.282 24.4554 22.3434 24.3779 22.3434H22.1387V23.4523C22.1387 23.8584 22.1949 24.0321 22.2403 24.1043C22.275 24.1631 22.3445 24.2405 22.5395 24.2405C22.6972 24.2405 22.8041 24.2031 22.8602 24.1283C22.8842 24.0882 22.9537 23.9359 22.9537 23.4523V22.99C22.9537 22.9126 23.0178 22.8511 23.0953 22.8511H24.3779C24.4554 22.8511 24.5168 22.9126 24.5168 22.99V23.4897C24.5168 24.2031 24.3458 24.7509 24.0118 25.1196C23.6778 25.491 23.1728 25.6808 22.5102 25.6808C21.9143 25.6808 21.4333 25.4777 21.0886 25.0849C20.7466 24.6948 20.5703 24.1577 20.5703 23.4897V20.5104C20.5703 19.9012 20.76 19.3962 21.1394 19.0087C21.5162 18.6213 22.0105 18.4236 22.6063 18.4236C23.2129 18.4236 23.6912 18.6079 24.0225 18.9713C24.3512 19.3321 24.5168 19.8504 24.5168 20.5131V22.2045H24.5195Z" fill="#B90D00"/>
</svg>
