<svg id="Layer_1" data-name="Layer 1" xmlns="http://www.w3.org/2000/svg" viewBox="0 0 13.43 15.56"><defs><style>.cls-1{fill:#231f20;}</style></defs><title>login</title><path class="cls-1" d="M12.47,13.22a6.37,6.37,0,0,0-3-2.38,4.7,4.7,0,0,0,2.26-4A4.76,4.76,0,0,0,7,2.1,4.83,4.83,0,0,0,2.25,6.85a4.69,4.69,0,0,0,2.27,4h0L4.17,11A6.39,6.39,0,0,0,.81,14.54a11,11,0,0,0-.52,2.52c-.06.47.28.69.72.57s.36-.45.38-.76a5.48,5.48,0,0,1,3.25-4.82,5.88,5.88,0,0,1,1.83-.52,10.2,10.2,0,0,0,1.16,0,5.68,5.68,0,0,1,2.7,1.11,5.46,5.46,0,0,1,2.27,4.22c0,.64.17.81.6.79s.53-.18.51-.84A6.44,6.44,0,0,0,12.47,13.22Zm-9-6.38A3.62,3.62,0,0,1,7,3.28,3.55,3.55,0,1,1,3.44,6.84Z" transform="translate(-0.28 -2.1)"/><path class="cls-1" d="M7.84,11.51" transform="translate(-0.28 -2.1)"/></svg>