<svg width="18" height="16" fill="none" xmlns="http://www.w3.org/2000/svg"><path d="M8.673 10.105c2.316 0 4.21-2.273 4.21-5.052C12.884 2.273 10.99 0 8.674 0c-2.315 0-4.21 2.274-4.21 5.053s1.895 5.052 4.21 5.052zm0-8.842c1.643 0 2.948 1.684 2.948 3.79 0 2.105-1.306 3.79-2.948 3.79s-2.947-1.685-2.947-3.79c0-2.106 1.305-3.79 2.947-3.79z" fill="#4E372A"/><path d="M12.505 9.684c-.337-.042-.673.21-.673.548-.043.336.21.673.547.673.126 0 3.284.38 3.621 3.79H1.305c.337-3.41 3.453-3.79 3.621-3.79.337-.042.59-.337.548-.673-.042-.337-.337-.59-.674-.548-.042 0-4.8.548-4.8 5.684 0 .337.295.632.632.632h16a.648.648 0 00.631-.632c.042-5.136-4.674-5.684-4.758-5.684z" fill="#4E372A"/></svg>