<svg width="117" height="31" fill="none" xmlns="http://www.w3.org/2000/svg"><mask id="a" maskUnits="userSpaceOnUse" x="0" y=".231" width="117" height="30" fill="#000"><path fill="#fff" d="M0 .231h117v30H0z"/><path d="M9.605 23.069a.95.95 0 01-.722-.194.927.927 0 01-.362-.646L7.01 9.802c-.034-.281.031-.519.196-.712a.945.945 0 01.655-.357c.372-.044.678.094.918.413l6.855 10.267L19.68 7.854c.157-.366.42-.571.793-.615a.95.95 0 01.722.194c.207.149.327.364.361.646l1.513 12.426a.893.893 0 01-.215.715.923.923 0 01-.636.354.951.951 0 01-.722-.193.927.927 0 01-.362-.646l-1.11-9.123-3.4 9.583c-.173.343-.433.535-.78.576-.41.049-.73-.106-.962-.463l-5.516-8.266L10.456 22a.92.92 0 01-.197.712.945.945 0 01-.654.357zM34.75 21.735a.945.945 0 01-.648-.367.92.92 0 01-.185-.715L35.628 8.25c.039-.28.163-.494.372-.64a.951.951 0 01.725-.183l8.392 1.128c.284.038.501.154.651.348.151.182.209.408.172.676a.816.816 0 01-.346.588c-.196.136-.436.184-.72.146l-7.426-.998-.615 4.452 5.329.716c.284.038.502.154.651.348a.81.81 0 01.174.658.875.875 0 01-.348.606c-.196.136-.435.184-.72.146l-5.328-.716-.632 4.58 7.426.998c.285.038.503.148.654.33a.81.81 0 01.174.658.898.898 0 01-.351.624c-.195.136-.435.184-.72.146l-8.391-1.127zM58.08 22.744a.952.952 0 01-.725-.182.927.927 0 01-.372-.64L55.267 9.52c-.039-.281.023-.52.185-.716a.945.945 0 01.649-.367l3.342-.45c.928-.125 1.778-.04 2.55.254.77.282 1.4.732 1.888 1.35.502.617.814 1.37.937 2.262.122.88.006 1.685-.346 2.417a4.225 4.225 0 01-1.612 1.747l3.464 4.123c.272.324.35.656.232.995-.119.327-.376.517-.772.57a.954.954 0 01-.899-.345l-3.892-4.626-.334.046-2.377.32.631 4.56a.92.92 0 01-.184.716c-.148.206-.365.329-.65.367zm-.04-7.402l2.375-.32c.842-.113 1.503-.439 1.983-.976.48-.55.667-1.197.564-1.942-.112-.806-.475-1.428-1.09-1.868-.616-.44-1.345-.603-2.186-.49l-2.377.32.73 5.276zM78.624 21.967a.946.946 0 01-.66-.347.92.92 0 01-.209-.709l1.306-12.449c.03-.282.146-.5.35-.652a.95.95 0 01.72-.205l3.354.342c.932.095 1.737.376 2.417.842a4.152 4.152 0 011.511 1.752c.34.716.463 1.522.369 2.417-.093.883-.398 1.638-.916 2.267a4.265 4.265 0 01-1.985 1.321l2.378 4.815c.186.378.182.719-.013 1.021-.194.29-.49.415-.887.374a.947.947 0 01-.79-.545l-2.674-5.403-.336-.034-2.385-.244-.48 4.58a.925.925 0 01-.351.651c-.193.166-.433.235-.719.206zm1.735-7.202l2.386.244c.844.086 1.565-.076 2.16-.486.597-.422.935-1.008 1.013-1.755.085-.81-.119-1.5-.612-2.07-.492-.57-1.161-.9-2.006-.985l-2.386-.244-.555 5.296zM102.256 22.218a.923.923 0 01-.638-.352.921.921 0 01-.2-.711l.501-4.28-4.078-8.187c-.132-.275-.166-.521-.103-.737a.845.845 0 01.381-.515c.203-.126.423-.175.659-.149.21.024.372.092.485.205.114.1.217.241.308.425l3.559 7.31 5.236-6.383a.968.968 0 01.909-.361.735.735 0 01.531.302.91.91 0 01.194.6c-.001.222-.09.442-.266.657l-5.898 7.052-.501 4.279a.926.926 0 01-.358.648.952.952 0 01-.721.197z"/></mask><path d="M9.605 23.069a.95.95 0 01-.722-.194.927.927 0 01-.362-.646L7.01 9.802c-.034-.281.031-.519.196-.712a.945.945 0 01.655-.357c.372-.044.678.094.918.413l6.855 10.267L19.68 7.854c.157-.366.42-.571.793-.615a.95.95 0 01.722.194c.207.149.327.364.361.646l1.513 12.426a.893.893 0 01-.215.715.923.923 0 01-.636.354.951.951 0 01-.722-.193.927.927 0 01-.362-.646l-1.11-9.123-3.4 9.583c-.173.343-.433.535-.78.576-.41.049-.73-.106-.962-.463l-5.516-8.266L10.456 22a.92.92 0 01-.197.712.945.945 0 01-.654.357zM34.75 21.735a.945.945 0 01-.648-.367.92.92 0 01-.185-.715L35.628 8.25c.039-.28.163-.494.372-.64a.951.951 0 01.725-.183l8.392 1.128c.284.038.501.154.651.348.151.182.209.408.172.676a.816.816 0 01-.346.588c-.196.136-.436.184-.72.146l-7.426-.998-.615 4.452 5.329.716c.284.038.502.154.651.348a.81.81 0 01.174.658.875.875 0 01-.348.606c-.196.136-.435.184-.72.146l-5.328-.716-.632 4.58 7.426.998c.285.038.503.148.654.33a.81.81 0 01.174.658.898.898 0 01-.351.624c-.195.136-.435.184-.72.146l-8.391-1.127zM58.08 22.744a.952.952 0 01-.725-.182.927.927 0 01-.372-.64L55.267 9.52c-.039-.281.023-.52.185-.716a.945.945 0 01.649-.367l3.342-.45c.928-.125 1.778-.04 2.55.254.77.282 1.4.732 1.888 1.35.502.617.814 1.37.937 2.262.122.88.006 1.685-.346 2.417a4.225 4.225 0 01-1.612 1.747l3.464 4.123c.272.324.35.656.232.995-.119.327-.376.517-.772.57a.954.954 0 01-.899-.345l-3.892-4.626-.334.046-2.377.32.631 4.56a.92.92 0 01-.184.716c-.148.206-.365.329-.65.367zm-.04-7.402l2.375-.32c.842-.113 1.503-.439 1.983-.976.48-.55.667-1.197.564-1.942-.112-.806-.475-1.428-1.09-1.868-.616-.44-1.345-.603-2.186-.49l-2.377.32.73 5.276zM78.624 21.967a.946.946 0 01-.66-.347.92.92 0 01-.209-.709l1.306-12.449c.03-.282.146-.5.35-.652a.95.95 0 01.72-.205l3.354.342c.932.095 1.737.376 2.417.842a4.152 4.152 0 011.511 1.752c.34.716.463 1.522.369 2.417-.093.883-.398 1.638-.916 2.267a4.265 4.265 0 01-1.985 1.321l2.378 4.815c.186.378.182.719-.013 1.021-.194.29-.49.415-.887.374a.947.947 0 01-.79-.545l-2.674-5.403-.336-.034-2.385-.244-.48 4.58a.925.925 0 01-.351.651c-.193.166-.433.235-.719.206zm1.735-7.202l2.386.244c.844.086 1.565-.076 2.16-.486.597-.422.935-1.008 1.013-1.755.085-.81-.119-1.5-.612-2.07-.492-.57-1.161-.9-2.006-.985l-2.386-.244-.555 5.296zM102.256 22.218a.923.923 0 01-.638-.352.921.921 0 01-.2-.711l.501-4.28-4.078-8.187c-.132-.275-.166-.521-.103-.737a.845.845 0 01.381-.515c.203-.126.423-.175.659-.149.21.024.372.092.485.205.114.1.217.241.308.425l3.559 7.31 5.236-6.383a.968.968 0 01.909-.361.735.735 0 01.531.302.91.91 0 01.194.6c-.001.222-.09.442-.266.657l-5.898 7.052-.501 4.279a.926.926 0 01-.358.648.952.952 0 01-.721.197z" fill="#F9BA4F"/><path d="M9.605 23.069a.95.95 0 01-.722-.194.927.927 0 01-.362-.646L7.01 9.802c-.034-.281.031-.519.196-.712a.945.945 0 01.655-.357c.372-.044.678.094.918.413l6.855 10.267L19.68 7.854c.157-.366.42-.571.793-.615a.95.95 0 01.722.194c.207.149.327.364.361.646l1.513 12.426a.893.893 0 01-.215.715.923.923 0 01-.636.354.951.951 0 01-.722-.193.927.927 0 01-.362-.646l-1.11-9.123-3.4 9.583c-.173.343-.433.535-.78.576-.41.049-.73-.106-.962-.463l-5.516-8.266L10.456 22a.92.92 0 01-.197.712.945.945 0 01-.654.357zM34.75 21.735a.945.945 0 01-.648-.367.92.92 0 01-.185-.715L35.628 8.25c.039-.28.163-.494.372-.64a.951.951 0 01.725-.183l8.392 1.128c.284.038.501.154.651.348.151.182.209.408.172.676a.816.816 0 01-.346.588c-.196.136-.436.184-.72.146l-7.426-.998-.615 4.452 5.329.716c.284.038.502.154.651.348a.81.81 0 01.174.658.875.875 0 01-.348.606c-.196.136-.435.184-.72.146l-5.328-.716-.632 4.58 7.426.998c.285.038.503.148.654.33a.81.81 0 01.174.658.898.898 0 01-.351.624c-.195.136-.435.184-.72.146l-8.391-1.127zM58.08 22.744a.952.952 0 01-.725-.182.927.927 0 01-.372-.64L55.267 9.52c-.039-.281.023-.52.185-.716a.945.945 0 01.649-.367l3.342-.45c.928-.125 1.778-.04 2.55.254.77.282 1.4.732 1.888 1.35.502.617.814 1.37.937 2.262.122.88.006 1.685-.346 2.417a4.225 4.225 0 01-1.612 1.747l3.464 4.123c.272.324.35.656.232.995-.119.327-.376.517-.772.57a.954.954 0 01-.899-.345l-3.892-4.626-.334.046-2.377.32.631 4.56a.92.92 0 01-.184.716c-.148.206-.365.329-.65.367zm-.04-7.402l2.375-.32c.842-.113 1.503-.439 1.983-.976.48-.55.667-1.197.564-1.942-.112-.806-.475-1.428-1.09-1.868-.616-.44-1.345-.603-2.186-.49l-2.377.32.73 5.276zM78.624 21.967a.946.946 0 01-.66-.347.92.92 0 01-.209-.709l1.306-12.449c.03-.282.146-.5.35-.652a.95.95 0 01.72-.205l3.354.342c.932.095 1.737.376 2.417.842a4.152 4.152 0 011.511 1.752c.34.716.463 1.522.369 2.417-.093.883-.398 1.638-.916 2.267a4.265 4.265 0 01-1.985 1.321l2.378 4.815c.186.378.182.719-.013 1.021-.194.29-.49.415-.887.374a.947.947 0 01-.79-.545l-2.674-5.403-.336-.034-2.385-.244-.48 4.58a.925.925 0 01-.351.651c-.193.166-.433.235-.719.206zm1.735-7.202l2.386.244c.844.086 1.565-.076 2.16-.486.597-.422.935-1.008 1.013-1.755.085-.81-.119-1.5-.612-2.07-.492-.57-1.161-.9-2.006-.985l-2.386-.244-.555 5.296zM102.256 22.218a.923.923 0 01-.638-.352.921.921 0 01-.2-.711l.501-4.28-4.078-8.187c-.132-.275-.166-.521-.103-.737a.845.845 0 01.381-.515c.203-.126.423-.175.659-.149.21.024.372.092.485.205.114.1.217.241.308.425l3.559 7.31 5.236-6.383a.968.968 0 01.909-.361.735.735 0 01.531.302.91.91 0 01.194.6c-.001.222-.09.442-.266.657l-5.898 7.052-.501 4.279a.926.926 0 01-.358.648.952.952 0 01-.721.197z" stroke="#4E372A" stroke-width="14" stroke-linejoin="round" mask="url(#a)"/><mask id="b" maskUnits="userSpaceOnUse" x="2" y="2.231" width="113" height="26" fill="#000"><path fill="#fff" d="M2 2.231h113v26H2z"/><path d="M9.605 23.069a.95.95 0 01-.722-.194.927.927 0 01-.362-.646L7.01 9.802c-.034-.281.031-.519.196-.712a.945.945 0 01.655-.357c.372-.044.678.094.918.413l6.855 10.267L19.68 7.854c.157-.366.42-.571.793-.615a.95.95 0 01.722.194c.207.149.327.364.361.646l1.513 12.426a.893.893 0 01-.215.715.923.923 0 01-.636.354.951.951 0 01-.722-.193.927.927 0 01-.362-.646l-1.11-9.123-3.4 9.583c-.173.343-.433.535-.78.576-.41.049-.73-.106-.962-.463l-5.516-8.266L10.456 22a.92.92 0 01-.197.712.945.945 0 01-.654.357zM34.75 21.735a.945.945 0 01-.648-.367.92.92 0 01-.185-.715L35.628 8.25c.039-.28.163-.494.372-.64a.951.951 0 01.725-.183l8.392 1.128c.284.038.501.154.651.348.151.182.209.408.172.676a.816.816 0 01-.346.588c-.196.136-.436.184-.72.146l-7.426-.998-.615 4.452 5.329.716c.284.038.502.154.651.348a.81.81 0 01.174.658.875.875 0 01-.348.606c-.196.136-.435.184-.72.146l-5.328-.716-.632 4.58 7.426.998c.285.038.503.148.654.33a.81.81 0 01.174.658.898.898 0 01-.351.624c-.195.136-.435.184-.72.146l-8.391-1.127zM58.08 22.744a.952.952 0 01-.725-.182.927.927 0 01-.372-.64L55.267 9.52c-.039-.281.023-.52.185-.716a.945.945 0 01.649-.367l3.342-.45c.928-.125 1.778-.04 2.55.254.77.282 1.4.732 1.888 1.35.502.617.814 1.37.937 2.262.122.88.006 1.685-.346 2.417a4.225 4.225 0 01-1.612 1.747l3.464 4.123c.272.324.35.656.232.995-.119.327-.376.517-.772.57a.954.954 0 01-.899-.345l-3.892-4.626-.334.046-2.377.32.631 4.56a.92.92 0 01-.184.716c-.148.206-.365.329-.65.367zm-.04-7.402l2.375-.32c.842-.113 1.503-.439 1.983-.976.48-.55.667-1.197.564-1.942-.112-.806-.475-1.428-1.09-1.868-.616-.44-1.345-.603-2.186-.49l-2.377.32.73 5.276zM78.624 21.967a.946.946 0 01-.66-.347.92.92 0 01-.209-.709l1.306-12.449c.03-.282.146-.5.35-.652a.95.95 0 01.72-.205l3.354.342c.932.095 1.737.376 2.417.842a4.152 4.152 0 011.511 1.752c.34.716.463 1.522.369 2.417-.093.883-.398 1.638-.916 2.267a4.265 4.265 0 01-1.985 1.321l2.378 4.815c.186.378.182.719-.013 1.021-.194.29-.49.415-.887.374a.947.947 0 01-.79-.545l-2.674-5.403-.336-.034-2.385-.244-.48 4.58a.925.925 0 01-.351.651c-.193.166-.433.235-.719.206zm1.735-7.202l2.386.244c.844.086 1.565-.076 2.16-.486.597-.422.935-1.008 1.013-1.755.085-.81-.119-1.5-.612-2.07-.492-.57-1.161-.9-2.006-.985l-2.386-.244-.555 5.296zM102.256 22.218a.923.923 0 01-.638-.352.921.921 0 01-.2-.711l.501-4.28-4.078-8.187c-.132-.275-.166-.521-.103-.737a.845.845 0 01.381-.515c.203-.126.423-.175.659-.149.21.024.372.092.485.205.114.1.217.241.308.425l3.559 7.31 5.236-6.383a.968.968 0 01.909-.361.735.735 0 01.531.302.91.91 0 01.194.6c-.001.222-.09.442-.266.657l-5.898 7.052-.501 4.279a.926.926 0 01-.358.648.952.952 0 01-.721.197z"/></mask><path d="M9.605 23.069a.95.95 0 01-.722-.194.927.927 0 01-.362-.646L7.01 9.802c-.034-.281.031-.519.196-.712a.945.945 0 01.655-.357c.372-.044.678.094.918.413l6.855 10.267L19.68 7.854c.157-.366.42-.571.793-.615a.95.95 0 01.722.194c.207.149.327.364.361.646l1.513 12.426a.893.893 0 01-.215.715.923.923 0 01-.636.354.951.951 0 01-.722-.193.927.927 0 01-.362-.646l-1.11-9.123-3.4 9.583c-.173.343-.433.535-.78.576-.41.049-.73-.106-.962-.463l-5.516-8.266L10.456 22a.92.92 0 01-.197.712.945.945 0 01-.654.357zM34.75 21.735a.945.945 0 01-.648-.367.92.92 0 01-.185-.715L35.628 8.25c.039-.28.163-.494.372-.64a.951.951 0 01.725-.183l8.392 1.128c.284.038.501.154.651.348.151.182.209.408.172.676a.816.816 0 01-.346.588c-.196.136-.436.184-.72.146l-7.426-.998-.615 4.452 5.329.716c.284.038.502.154.651.348a.81.81 0 01.174.658.875.875 0 01-.348.606c-.196.136-.435.184-.72.146l-5.328-.716-.632 4.58 7.426.998c.285.038.503.148.654.33a.81.81 0 01.174.658.898.898 0 01-.351.624c-.195.136-.435.184-.72.146l-8.391-1.127zM58.08 22.744a.952.952 0 01-.725-.182.927.927 0 01-.372-.64L55.267 9.52c-.039-.281.023-.52.185-.716a.945.945 0 01.649-.367l3.342-.45c.928-.125 1.778-.04 2.55.254.77.282 1.4.732 1.888 1.35.502.617.814 1.37.937 2.262.122.88.006 1.685-.346 2.417a4.225 4.225 0 01-1.612 1.747l3.464 4.123c.272.324.35.656.232.995-.119.327-.376.517-.772.57a.954.954 0 01-.899-.345l-3.892-4.626-.334.046-2.377.32.631 4.56a.92.92 0 01-.184.716c-.148.206-.365.329-.65.367zm-.04-7.402l2.375-.32c.842-.113 1.503-.439 1.983-.976.48-.55.667-1.197.564-1.942-.112-.806-.475-1.428-1.09-1.868-.616-.44-1.345-.603-2.186-.49l-2.377.32.73 5.276zM78.624 21.967a.946.946 0 01-.66-.347.92.92 0 01-.209-.709l1.306-12.449c.03-.282.146-.5.35-.652a.95.95 0 01.72-.205l3.354.342c.932.095 1.737.376 2.417.842a4.152 4.152 0 011.511 1.752c.34.716.463 1.522.369 2.417-.093.883-.398 1.638-.916 2.267a4.265 4.265 0 01-1.985 1.321l2.378 4.815c.186.378.182.719-.013 1.021-.194.29-.49.415-.887.374a.947.947 0 01-.79-.545l-2.674-5.403-.336-.034-2.385-.244-.48 4.58a.925.925 0 01-.351.651c-.193.166-.433.235-.719.206zm1.735-7.202l2.386.244c.844.086 1.565-.076 2.16-.486.597-.422.935-1.008 1.013-1.755.085-.81-.119-1.5-.612-2.07-.492-.57-1.161-.9-2.006-.985l-2.386-.244-.555 5.296zM102.256 22.218a.923.923 0 01-.638-.352.921.921 0 01-.2-.711l.501-4.28-4.078-8.187c-.132-.275-.166-.521-.103-.737a.845.845 0 01.381-.515c.203-.126.423-.175.659-.149.21.024.372.092.485.205.114.1.217.241.308.425l3.559 7.31 5.236-6.383a.968.968 0 01.909-.361.735.735 0 01.531.302.91.91 0 01.194.6c-.001.222-.09.442-.266.657l-5.898 7.052-.501 4.279a.926.926 0 01-.358.648.952.952 0 01-.721.197z" fill="#F9BA4F"/><path d="M9.605 23.069a.95.95 0 01-.722-.194.927.927 0 01-.362-.646L7.01 9.802c-.034-.281.031-.519.196-.712a.945.945 0 01.655-.357c.372-.044.678.094.918.413l6.855 10.267L19.68 7.854c.157-.366.42-.571.793-.615a.95.95 0 01.722.194c.207.149.327.364.361.646l1.513 12.426a.893.893 0 01-.215.715.923.923 0 01-.636.354.951.951 0 01-.722-.193.927.927 0 01-.362-.646l-1.11-9.123-3.4 9.583c-.173.343-.433.535-.78.576-.41.049-.73-.106-.962-.463l-5.516-8.266L10.456 22a.92.92 0 01-.197.712.945.945 0 01-.654.357zM34.75 21.735a.945.945 0 01-.648-.367.92.92 0 01-.185-.715L35.628 8.25c.039-.28.163-.494.372-.64a.951.951 0 01.725-.183l8.392 1.128c.284.038.501.154.651.348.151.182.209.408.172.676a.816.816 0 01-.346.588c-.196.136-.436.184-.72.146l-7.426-.998-.615 4.452 5.329.716c.284.038.502.154.651.348a.81.81 0 01.174.658.875.875 0 01-.348.606c-.196.136-.435.184-.72.146l-5.328-.716-.632 4.58 7.426.998c.285.038.503.148.654.33a.81.81 0 01.174.658.898.898 0 01-.351.624c-.195.136-.435.184-.72.146l-8.391-1.127zM58.08 22.744a.952.952 0 01-.725-.182.927.927 0 01-.372-.64L55.267 9.52c-.039-.281.023-.52.185-.716a.945.945 0 01.649-.367l3.342-.45c.928-.125 1.778-.04 2.55.254.77.282 1.4.732 1.888 1.35.502.617.814 1.37.937 2.262.122.88.006 1.685-.346 2.417a4.225 4.225 0 01-1.612 1.747l3.464 4.123c.272.324.35.656.232.995-.119.327-.376.517-.772.57a.954.954 0 01-.899-.345l-3.892-4.626-.334.046-2.377.32.631 4.56a.92.92 0 01-.184.716c-.148.206-.365.329-.65.367zm-.04-7.402l2.375-.32c.842-.113 1.503-.439 1.983-.976.48-.55.667-1.197.564-1.942-.112-.806-.475-1.428-1.09-1.868-.616-.44-1.345-.603-2.186-.49l-2.377.32.73 5.276zM78.624 21.967a.946.946 0 01-.66-.347.92.92 0 01-.209-.709l1.306-12.449c.03-.282.146-.5.35-.652a.95.95 0 01.72-.205l3.354.342c.932.095 1.737.376 2.417.842a4.152 4.152 0 011.511 1.752c.34.716.463 1.522.369 2.417-.093.883-.398 1.638-.916 2.267a4.265 4.265 0 01-1.985 1.321l2.378 4.815c.186.378.182.719-.013 1.021-.194.29-.49.415-.887.374a.947.947 0 01-.79-.545l-2.674-5.403-.336-.034-2.385-.244-.48 4.58a.925.925 0 01-.351.651c-.193.166-.433.235-.719.206zm1.735-7.202l2.386.244c.844.086 1.565-.076 2.16-.486.597-.422.935-1.008 1.013-1.755.085-.81-.119-1.5-.612-2.07-.492-.57-1.161-.9-2.006-.985l-2.386-.244-.555 5.296zM102.256 22.218a.923.923 0 01-.638-.352.921.921 0 01-.2-.711l.501-4.28-4.078-8.187c-.132-.275-.166-.521-.103-.737a.845.845 0 01.381-.515c.203-.126.423-.175.659-.149.21.024.372.092.485.205.114.1.217.241.308.425l3.559 7.31 5.236-6.383a.968.968 0 01.909-.361.735.735 0 01.531.302.91.91 0 01.194.6c-.001.222-.09.442-.266.657l-5.898 7.052-.501 4.279a.926.926 0 01-.358.648.952.952 0 01-.721.197z" stroke="#FFFCF3" stroke-width="10" stroke-linejoin="round" mask="url(#b)"/></svg>