<svg width="400" height="400" viewBox="0 0 400 400" fill="none" xmlns="http://www.w3.org/2000/svg">
<rect width="400" height="400" fill="#FAF9F8"/>
<mask id="path-1-outside-1" maskUnits="userSpaceOnUse" x="93" y="178" width="214" height="45" fill="black">
<rect fill="white" x="93" y="178" width="214" height="45"/>
<path d="M105.058 215.754C104.528 215.816 104.061 215.691 103.656 215.377C103.251 215.064 103.017 214.645 102.954 214.123L100.017 189.993C99.9506 189.447 100.078 188.986 100.398 188.61C100.716 188.211 101.14 187.98 101.67 187.917C102.392 187.832 102.987 188.099 103.453 188.719L116.762 208.654L124.621 186.211C124.925 185.5 125.439 185.101 126.161 185.016C126.691 184.953 127.158 185.078 127.563 185.392C127.964 185.682 128.198 186.1 128.265 186.647L131.201 210.776C131.265 211.299 131.126 211.761 130.784 212.163C130.466 212.562 130.054 212.792 129.549 212.852C129.019 212.915 128.552 212.789 128.147 212.476C127.742 212.162 127.508 211.744 127.445 211.221L125.289 193.507L118.686 212.114C118.352 212.78 117.847 213.154 117.173 213.233C116.378 213.328 115.756 213.028 115.305 212.334L104.594 196.285L106.71 213.678C106.774 214.2 106.647 214.661 106.329 215.061C106.011 215.46 105.587 215.691 105.058 215.754Z"/>
<path d="M153.885 213.163C153.356 213.092 152.936 212.854 152.624 212.45C152.313 212.046 152.193 211.583 152.265 211.062L155.589 186.981C155.664 186.436 155.905 186.021 156.311 185.738C156.72 185.43 157.19 185.312 157.718 185.383L174.013 187.573C174.565 187.647 174.987 187.873 175.278 188.25C175.572 188.603 175.683 189.041 175.611 189.562C175.542 190.06 175.318 190.441 174.939 190.704C174.56 190.967 174.094 191.061 173.541 190.987L159.122 189.05L157.929 197.693L168.275 199.083C168.828 199.158 169.249 199.383 169.54 199.76C169.834 200.114 169.947 200.54 169.878 201.038C169.809 201.536 169.584 201.928 169.201 202.215C168.822 202.478 168.357 202.572 167.804 202.498L157.458 201.108L156.23 210L170.65 211.938C171.203 212.012 171.626 212.226 171.92 212.579C172.214 212.933 172.327 213.358 172.258 213.856C172.186 214.378 171.959 214.782 171.577 215.069C171.198 215.332 170.732 215.426 170.179 215.352L153.885 213.163Z"/>
<path d="M199.184 215.123C198.655 215.194 198.186 215.076 197.776 214.769C197.367 214.462 197.126 214.047 197.054 213.526L193.723 189.446C193.647 188.901 193.767 188.438 194.081 188.058C194.393 187.653 194.813 187.416 195.341 187.344L201.83 186.471C203.632 186.228 205.283 186.392 206.782 186.963C208.277 187.51 209.5 188.384 210.449 189.585C211.423 190.782 212.029 192.247 212.269 193.978C212.505 195.685 212.28 197.249 211.596 198.669C210.908 200.066 209.865 201.197 208.466 202.062L215.192 210.069C215.72 210.698 215.87 211.342 215.643 212.001C215.412 212.636 214.913 213.005 214.144 213.108C213.447 213.202 212.865 212.979 212.399 212.438L204.84 203.456C204.624 203.485 204.408 203.514 204.192 203.543L199.578 204.165L200.803 213.021C200.875 213.543 200.755 214.006 200.444 214.41C200.157 214.811 199.737 215.048 199.184 215.123ZM199.105 200.75L203.719 200.129C205.353 199.909 206.637 199.277 207.57 198.233C208.499 197.166 208.864 195.909 208.664 194.463C208.447 192.898 207.742 191.689 206.546 190.835C205.351 189.982 203.937 189.665 202.302 189.885L197.688 190.506L199.105 200.75Z"/>
<path d="M239.076 213.613C238.546 213.559 238.118 213.335 237.794 212.941C237.469 212.547 237.334 212.088 237.389 211.564L239.924 187.391C239.981 186.843 240.209 186.421 240.605 186.125C241.005 185.805 241.47 185.672 242.001 185.726L248.514 186.391C250.324 186.576 251.888 187.12 253.208 188.025C254.53 188.906 255.508 190.04 256.143 191.428C256.802 192.819 257.04 194.383 256.858 196.121C256.678 197.835 256.085 199.302 255.08 200.523C254.076 201.719 252.792 202.575 251.226 203.089L255.842 212.438C256.204 213.172 256.195 213.833 255.817 214.42C255.441 214.983 254.867 215.225 254.095 215.146C253.395 215.075 252.884 214.722 252.56 214.088L247.369 203.597C247.152 203.575 246.934 203.553 246.717 203.53L242.085 203.058L241.153 211.949C241.098 212.472 240.871 212.894 240.472 213.214C240.096 213.537 239.631 213.67 239.076 213.613ZM242.445 199.63L247.077 200.103C248.717 200.27 250.116 199.956 251.272 199.159C252.431 198.339 253.087 197.203 253.239 195.751C253.404 194.18 253.008 192.841 252.051 191.732C251.094 190.624 249.796 189.986 248.155 189.819L243.523 189.346L242.445 199.63Z"/>
<path d="M284.963 214.101C284.457 214.043 284.044 213.816 283.724 213.418C283.405 213.02 283.275 212.56 283.336 212.037L284.308 203.728L276.389 187.83C276.134 187.295 276.068 186.817 276.191 186.398C276.316 185.954 276.562 185.621 276.93 185.398C277.325 185.154 277.751 185.058 278.209 185.11C278.619 185.157 278.933 185.289 279.151 185.506C279.373 185.7 279.573 185.976 279.751 186.333L286.66 200.527L296.826 188.133C297.281 187.583 297.87 187.349 298.593 187.431C299.027 187.48 299.37 187.676 299.623 188.018C299.879 188.336 300.005 188.724 300 189.181C299.998 189.615 299.826 190.041 299.484 190.459L288.031 204.152L287.059 212.461C286.998 212.984 286.766 213.403 286.363 213.718C285.96 214.034 285.493 214.161 284.963 214.101Z"/>
</mask>
<path d="M105.058 215.754C104.528 215.816 104.061 215.691 103.656 215.377C103.251 215.064 103.017 214.645 102.954 214.123L100.017 189.993C99.9506 189.447 100.078 188.986 100.398 188.61C100.716 188.211 101.14 187.98 101.67 187.917C102.392 187.832 102.987 188.099 103.453 188.719L116.762 208.654L124.621 186.211C124.925 185.5 125.439 185.101 126.161 185.016C126.691 184.953 127.158 185.078 127.563 185.392C127.964 185.682 128.198 186.1 128.265 186.647L131.201 210.776C131.265 211.299 131.126 211.761 130.784 212.163C130.466 212.562 130.054 212.792 129.549 212.852C129.019 212.915 128.552 212.789 128.147 212.476C127.742 212.162 127.508 211.744 127.445 211.221L125.289 193.507L118.686 212.114C118.352 212.78 117.847 213.154 117.173 213.233C116.378 213.328 115.756 213.028 115.305 212.334L104.594 196.285L106.71 213.678C106.774 214.2 106.647 214.661 106.329 215.061C106.011 215.46 105.587 215.691 105.058 215.754Z" fill="#F9BA4F"/>
<path d="M153.885 213.163C153.356 213.092 152.936 212.854 152.624 212.45C152.313 212.046 152.193 211.583 152.265 211.062L155.589 186.981C155.664 186.436 155.905 186.021 156.311 185.738C156.72 185.43 157.19 185.312 157.718 185.383L174.013 187.573C174.565 187.647 174.987 187.873 175.278 188.25C175.572 188.603 175.683 189.041 175.611 189.562C175.542 190.06 175.318 190.441 174.939 190.704C174.56 190.967 174.094 191.061 173.541 190.987L159.122 189.05L157.929 197.693L168.275 199.083C168.828 199.158 169.249 199.383 169.54 199.76C169.834 200.114 169.947 200.54 169.878 201.038C169.809 201.536 169.584 201.928 169.201 202.215C168.822 202.478 168.357 202.572 167.804 202.498L157.458 201.108L156.23 210L170.65 211.938C171.203 212.012 171.626 212.226 171.92 212.579C172.214 212.933 172.327 213.358 172.258 213.856C172.186 214.378 171.959 214.782 171.577 215.069C171.198 215.332 170.732 215.426 170.179 215.352L153.885 213.163Z" fill="#F9BA4F"/>
<path d="M199.184 215.123C198.655 215.194 198.186 215.076 197.776 214.769C197.367 214.462 197.126 214.047 197.054 213.526L193.723 189.446C193.647 188.901 193.767 188.438 194.081 188.058C194.393 187.653 194.813 187.416 195.341 187.344L201.83 186.471C203.632 186.228 205.283 186.392 206.782 186.963C208.277 187.51 209.5 188.384 210.449 189.585C211.423 190.782 212.029 192.247 212.269 193.978C212.505 195.685 212.28 197.249 211.596 198.669C210.908 200.066 209.865 201.197 208.466 202.062L215.192 210.069C215.72 210.698 215.87 211.342 215.643 212.001C215.412 212.636 214.913 213.005 214.144 213.108C213.447 213.202 212.865 212.979 212.399 212.438L204.84 203.456C204.624 203.485 204.408 203.514 204.192 203.543L199.578 204.165L200.803 213.021C200.875 213.543 200.755 214.006 200.444 214.41C200.157 214.811 199.737 215.048 199.184 215.123ZM199.105 200.75L203.719 200.129C205.353 199.909 206.637 199.277 207.57 198.233C208.499 197.166 208.864 195.909 208.664 194.463C208.447 192.898 207.742 191.689 206.546 190.835C205.351 189.982 203.937 189.665 202.302 189.885L197.688 190.506L199.105 200.75Z" fill="#F9BA4F"/>
<path d="M239.076 213.613C238.546 213.559 238.118 213.335 237.794 212.941C237.469 212.547 237.334 212.088 237.389 211.564L239.924 187.391C239.981 186.843 240.209 186.421 240.605 186.125C241.005 185.805 241.47 185.672 242.001 185.726L248.514 186.391C250.324 186.576 251.888 187.12 253.208 188.025C254.53 188.906 255.508 190.04 256.143 191.428C256.802 192.819 257.04 194.383 256.858 196.121C256.678 197.835 256.085 199.302 255.08 200.523C254.076 201.719 252.792 202.575 251.226 203.089L255.842 212.438C256.204 213.172 256.195 213.833 255.817 214.42C255.441 214.983 254.867 215.225 254.095 215.146C253.395 215.075 252.884 214.722 252.56 214.088L247.369 203.597C247.152 203.575 246.934 203.553 246.717 203.53L242.085 203.058L241.153 211.949C241.098 212.472 240.871 212.894 240.472 213.214C240.096 213.537 239.631 213.67 239.076 213.613ZM242.445 199.63L247.077 200.103C248.717 200.27 250.116 199.956 251.272 199.159C252.431 198.339 253.087 197.203 253.239 195.751C253.404 194.18 253.008 192.841 252.051 191.732C251.094 190.624 249.796 189.986 248.155 189.819L243.523 189.346L242.445 199.63Z" fill="#F9BA4F"/>
<path d="M284.963 214.101C284.457 214.043 284.044 213.816 283.724 213.418C283.405 213.02 283.275 212.56 283.336 212.037L284.308 203.728L276.389 187.83C276.134 187.295 276.068 186.817 276.191 186.398C276.316 185.954 276.562 185.621 276.93 185.398C277.325 185.154 277.751 185.058 278.209 185.11C278.619 185.157 278.933 185.289 279.151 185.506C279.373 185.7 279.573 185.976 279.751 186.333L286.66 200.527L296.826 188.133C297.281 187.583 297.87 187.349 298.593 187.431C299.027 187.48 299.37 187.676 299.623 188.018C299.879 188.336 300.005 188.724 300 189.181C299.998 189.615 299.826 190.041 299.484 190.459L288.031 204.152L287.059 212.461C286.998 212.984 286.766 213.403 286.363 213.718C285.96 214.034 285.493 214.161 284.963 214.101Z" fill="#F9BA4F"/>
<path d="M105.058 215.754C104.528 215.816 104.061 215.691 103.656 215.377C103.251 215.064 103.017 214.645 102.954 214.123L100.017 189.993C99.9506 189.447 100.078 188.986 100.398 188.61C100.716 188.211 101.14 187.98 101.67 187.917C102.392 187.832 102.987 188.099 103.453 188.719L116.762 208.654L124.621 186.211C124.925 185.5 125.439 185.101 126.161 185.016C126.691 184.953 127.158 185.078 127.563 185.392C127.964 185.682 128.198 186.1 128.265 186.647L131.201 210.776C131.265 211.299 131.126 211.761 130.784 212.163C130.466 212.562 130.054 212.792 129.549 212.852C129.019 212.915 128.552 212.789 128.147 212.476C127.742 212.162 127.508 211.744 127.445 211.221L125.289 193.507L118.686 212.114C118.352 212.78 117.847 213.154 117.173 213.233C116.378 213.328 115.756 213.028 115.305 212.334L104.594 196.285L106.71 213.678C106.774 214.2 106.647 214.661 106.329 215.061C106.011 215.46 105.587 215.691 105.058 215.754Z" stroke="#4E372A" stroke-width="14" stroke-linejoin="round" mask="url(#path-1-outside-1)"/>
<path d="M153.885 213.163C153.356 213.092 152.936 212.854 152.624 212.45C152.313 212.046 152.193 211.583 152.265 211.062L155.589 186.981C155.664 186.436 155.905 186.021 156.311 185.738C156.72 185.43 157.19 185.312 157.718 185.383L174.013 187.573C174.565 187.647 174.987 187.873 175.278 188.25C175.572 188.603 175.683 189.041 175.611 189.562C175.542 190.06 175.318 190.441 174.939 190.704C174.56 190.967 174.094 191.061 173.541 190.987L159.122 189.05L157.929 197.693L168.275 199.083C168.828 199.158 169.249 199.383 169.54 199.76C169.834 200.114 169.947 200.54 169.878 201.038C169.809 201.536 169.584 201.928 169.201 202.215C168.822 202.478 168.357 202.572 167.804 202.498L157.458 201.108L156.23 210L170.65 211.938C171.203 212.012 171.626 212.226 171.92 212.579C172.214 212.933 172.327 213.358 172.258 213.856C172.186 214.378 171.959 214.782 171.577 215.069C171.198 215.332 170.732 215.426 170.179 215.352L153.885 213.163Z" stroke="#4E372A" stroke-width="14" stroke-linejoin="round" mask="url(#path-1-outside-1)"/>
<path d="M199.184 215.123C198.655 215.194 198.186 215.076 197.776 214.769C197.367 214.462 197.126 214.047 197.054 213.526L193.723 189.446C193.647 188.901 193.767 188.438 194.081 188.058C194.393 187.653 194.813 187.416 195.341 187.344L201.83 186.471C203.632 186.228 205.283 186.392 206.782 186.963C208.277 187.51 209.5 188.384 210.449 189.585C211.423 190.782 212.029 192.247 212.269 193.978C212.505 195.685 212.28 197.249 211.596 198.669C210.908 200.066 209.865 201.197 208.466 202.062L215.192 210.069C215.72 210.698 215.87 211.342 215.643 212.001C215.412 212.636 214.913 213.005 214.144 213.108C213.447 213.202 212.865 212.979 212.399 212.438L204.84 203.456C204.624 203.485 204.408 203.514 204.192 203.543L199.578 204.165L200.803 213.021C200.875 213.543 200.755 214.006 200.444 214.41C200.157 214.811 199.737 215.048 199.184 215.123ZM199.105 200.75L203.719 200.129C205.353 199.909 206.637 199.277 207.57 198.233C208.499 197.166 208.864 195.909 208.664 194.463C208.447 192.898 207.742 191.689 206.546 190.835C205.351 189.982 203.937 189.665 202.302 189.885L197.688 190.506L199.105 200.75Z" stroke="#4E372A" stroke-width="14" stroke-linejoin="round" mask="url(#path-1-outside-1)"/>
<path d="M239.076 213.613C238.546 213.559 238.118 213.335 237.794 212.941C237.469 212.547 237.334 212.088 237.389 211.564L239.924 187.391C239.981 186.843 240.209 186.421 240.605 186.125C241.005 185.805 241.47 185.672 242.001 185.726L248.514 186.391C250.324 186.576 251.888 187.12 253.208 188.025C254.53 188.906 255.508 190.04 256.143 191.428C256.802 192.819 257.04 194.383 256.858 196.121C256.678 197.835 256.085 199.302 255.08 200.523C254.076 201.719 252.792 202.575 251.226 203.089L255.842 212.438C256.204 213.172 256.195 213.833 255.817 214.42C255.441 214.983 254.867 215.225 254.095 215.146C253.395 215.075 252.884 214.722 252.56 214.088L247.369 203.597C247.152 203.575 246.934 203.553 246.717 203.53L242.085 203.058L241.153 211.949C241.098 212.472 240.871 212.894 240.472 213.214C240.096 213.537 239.631 213.67 239.076 213.613ZM242.445 199.63L247.077 200.103C248.717 200.27 250.116 199.956 251.272 199.159C252.431 198.339 253.087 197.203 253.239 195.751C253.404 194.18 253.008 192.841 252.051 191.732C251.094 190.624 249.796 189.986 248.155 189.819L243.523 189.346L242.445 199.63Z" stroke="#4E372A" stroke-width="14" stroke-linejoin="round" mask="url(#path-1-outside-1)"/>
<path d="M284.963 214.101C284.457 214.043 284.044 213.816 283.724 213.418C283.405 213.02 283.275 212.56 283.336 212.037L284.308 203.728L276.389 187.83C276.134 187.295 276.068 186.817 276.191 186.398C276.316 185.954 276.562 185.621 276.93 185.398C277.325 185.154 277.751 185.058 278.209 185.11C278.619 185.157 278.933 185.289 279.151 185.506C279.373 185.7 279.573 185.976 279.751 186.333L286.66 200.527L296.826 188.133C297.281 187.583 297.87 187.349 298.593 187.431C299.027 187.48 299.37 187.676 299.623 188.018C299.879 188.336 300.005 188.724 300 189.181C299.998 189.615 299.826 190.041 299.484 190.459L288.031 204.152L287.059 212.461C286.998 212.984 286.766 213.403 286.363 213.718C285.96 214.034 285.493 214.161 284.963 214.101Z" stroke="#4E372A" stroke-width="14" stroke-linejoin="round" mask="url(#path-1-outside-1)"/>
<mask id="path-2-outside-2" maskUnits="userSpaceOnUse" x="95" y="180" width="210" height="41" fill="black">
<rect fill="white" x="95" y="180" width="210" height="41"/>
<path d="M105.058 215.754C104.528 215.816 104.061 215.691 103.656 215.377C103.251 215.064 103.017 214.645 102.954 214.123L100.017 189.993C99.9506 189.447 100.078 188.986 100.398 188.61C100.716 188.211 101.14 187.98 101.67 187.917C102.392 187.832 102.987 188.099 103.453 188.719L116.762 208.654L124.621 186.211C124.925 185.5 125.439 185.101 126.161 185.016C126.691 184.953 127.158 185.078 127.563 185.392C127.964 185.682 128.198 186.1 128.265 186.647L131.201 210.776C131.265 211.299 131.126 211.761 130.784 212.163C130.466 212.562 130.054 212.792 129.549 212.852C129.019 212.915 128.552 212.789 128.147 212.476C127.742 212.162 127.508 211.744 127.445 211.221L125.289 193.507L118.686 212.114C118.352 212.78 117.847 213.154 117.173 213.233C116.378 213.328 115.756 213.028 115.305 212.334L104.594 196.285L106.71 213.678C106.774 214.2 106.647 214.661 106.329 215.061C106.011 215.46 105.587 215.691 105.058 215.754Z"/>
<path d="M153.885 213.163C153.356 213.092 152.936 212.854 152.624 212.45C152.313 212.046 152.193 211.583 152.265 211.062L155.589 186.981C155.664 186.436 155.905 186.021 156.311 185.738C156.72 185.43 157.19 185.312 157.718 185.383L174.013 187.573C174.565 187.647 174.987 187.873 175.278 188.25C175.572 188.603 175.683 189.041 175.611 189.562C175.542 190.06 175.318 190.441 174.939 190.704C174.56 190.967 174.094 191.061 173.541 190.987L159.122 189.05L157.929 197.693L168.275 199.083C168.828 199.158 169.249 199.383 169.54 199.76C169.834 200.114 169.947 200.54 169.878 201.038C169.809 201.536 169.584 201.928 169.201 202.215C168.822 202.478 168.357 202.572 167.804 202.498L157.458 201.108L156.23 210L170.65 211.938C171.203 212.012 171.626 212.226 171.92 212.579C172.214 212.933 172.327 213.358 172.258 213.856C172.186 214.378 171.959 214.782 171.577 215.069C171.198 215.332 170.732 215.426 170.179 215.352L153.885 213.163Z"/>
<path d="M199.184 215.123C198.655 215.194 198.186 215.076 197.776 214.769C197.367 214.462 197.126 214.047 197.054 213.526L193.723 189.446C193.647 188.901 193.767 188.438 194.081 188.058C194.393 187.653 194.813 187.416 195.341 187.344L201.83 186.471C203.632 186.228 205.283 186.392 206.782 186.963C208.277 187.51 209.5 188.384 210.449 189.585C211.423 190.782 212.029 192.247 212.269 193.978C212.505 195.685 212.28 197.249 211.596 198.669C210.908 200.066 209.865 201.197 208.466 202.062L215.192 210.069C215.72 210.698 215.87 211.342 215.643 212.001C215.412 212.636 214.913 213.005 214.144 213.108C213.447 213.202 212.865 212.979 212.399 212.438L204.84 203.456C204.624 203.485 204.408 203.514 204.192 203.543L199.578 204.165L200.803 213.021C200.875 213.543 200.755 214.006 200.444 214.41C200.157 214.811 199.737 215.048 199.184 215.123ZM199.105 200.75L203.719 200.129C205.353 199.909 206.637 199.277 207.57 198.233C208.499 197.166 208.864 195.909 208.664 194.463C208.447 192.898 207.742 191.689 206.546 190.835C205.351 189.982 203.937 189.665 202.302 189.885L197.688 190.506L199.105 200.75Z"/>
<path d="M239.076 213.613C238.546 213.559 238.118 213.335 237.794 212.941C237.469 212.547 237.334 212.088 237.389 211.564L239.924 187.391C239.981 186.843 240.209 186.421 240.605 186.125C241.005 185.805 241.47 185.672 242.001 185.726L248.514 186.391C250.324 186.576 251.888 187.12 253.208 188.025C254.53 188.906 255.508 190.04 256.143 191.428C256.802 192.819 257.04 194.383 256.858 196.121C256.678 197.835 256.085 199.302 255.08 200.523C254.076 201.719 252.792 202.575 251.226 203.089L255.842 212.438C256.204 213.172 256.195 213.833 255.817 214.42C255.441 214.983 254.867 215.225 254.095 215.146C253.395 215.075 252.884 214.722 252.56 214.088L247.369 203.597C247.152 203.575 246.934 203.553 246.717 203.53L242.085 203.058L241.153 211.949C241.098 212.472 240.871 212.894 240.472 213.214C240.096 213.537 239.631 213.67 239.076 213.613ZM242.445 199.63L247.077 200.103C248.717 200.27 250.116 199.956 251.272 199.159C252.431 198.339 253.087 197.203 253.239 195.751C253.404 194.18 253.008 192.841 252.051 191.732C251.094 190.624 249.796 189.986 248.155 189.819L243.523 189.346L242.445 199.63Z"/>
<path d="M284.963 214.101C284.457 214.043 284.044 213.816 283.724 213.418C283.405 213.02 283.275 212.56 283.336 212.037L284.308 203.728L276.389 187.83C276.134 187.295 276.068 186.817 276.191 186.398C276.316 185.954 276.562 185.621 276.93 185.398C277.325 185.154 277.751 185.058 278.209 185.11C278.619 185.157 278.933 185.289 279.151 185.506C279.373 185.7 279.573 185.976 279.751 186.333L286.66 200.527L296.826 188.133C297.281 187.583 297.87 187.349 298.593 187.431C299.027 187.48 299.37 187.676 299.623 188.018C299.879 188.336 300.005 188.724 300 189.181C299.998 189.615 299.826 190.041 299.484 190.459L288.031 204.152L287.059 212.461C286.998 212.984 286.766 213.403 286.363 213.718C285.96 214.034 285.493 214.161 284.963 214.101Z"/>
</mask>
<path d="M105.058 215.754C104.528 215.816 104.061 215.691 103.656 215.377C103.251 215.064 103.017 214.645 102.954 214.123L100.017 189.993C99.9506 189.447 100.078 188.986 100.398 188.61C100.716 188.211 101.14 187.98 101.67 187.917C102.392 187.832 102.987 188.099 103.453 188.719L116.762 208.654L124.621 186.211C124.925 185.5 125.439 185.101 126.161 185.016C126.691 184.953 127.158 185.078 127.563 185.392C127.964 185.682 128.198 186.1 128.265 186.647L131.201 210.776C131.265 211.299 131.126 211.761 130.784 212.163C130.466 212.562 130.054 212.792 129.549 212.852C129.019 212.915 128.552 212.789 128.147 212.476C127.742 212.162 127.508 211.744 127.445 211.221L125.289 193.507L118.686 212.114C118.352 212.78 117.847 213.154 117.173 213.233C116.378 213.328 115.756 213.028 115.305 212.334L104.594 196.285L106.71 213.678C106.774 214.2 106.647 214.661 106.329 215.061C106.011 215.46 105.587 215.691 105.058 215.754Z" fill="#F9BA4F"/>
<path d="M153.885 213.163C153.356 213.092 152.936 212.854 152.624 212.45C152.313 212.046 152.193 211.583 152.265 211.062L155.589 186.981C155.664 186.436 155.905 186.021 156.311 185.738C156.72 185.43 157.19 185.312 157.718 185.383L174.013 187.573C174.565 187.647 174.987 187.873 175.278 188.25C175.572 188.603 175.683 189.041 175.611 189.562C175.542 190.06 175.318 190.441 174.939 190.704C174.56 190.967 174.094 191.061 173.541 190.987L159.122 189.05L157.929 197.693L168.275 199.083C168.828 199.158 169.249 199.383 169.54 199.76C169.834 200.114 169.947 200.54 169.878 201.038C169.809 201.536 169.584 201.928 169.201 202.215C168.822 202.478 168.357 202.572 167.804 202.498L157.458 201.108L156.23 210L170.65 211.938C171.203 212.012 171.626 212.226 171.92 212.579C172.214 212.933 172.327 213.358 172.258 213.856C172.186 214.378 171.959 214.782 171.577 215.069C171.198 215.332 170.732 215.426 170.179 215.352L153.885 213.163Z" fill="#F9BA4F"/>
<path d="M199.184 215.123C198.655 215.194 198.186 215.076 197.776 214.769C197.367 214.462 197.126 214.047 197.054 213.526L193.723 189.446C193.647 188.901 193.767 188.438 194.081 188.058C194.393 187.653 194.813 187.416 195.341 187.344L201.83 186.471C203.632 186.228 205.283 186.392 206.782 186.963C208.277 187.51 209.5 188.384 210.449 189.585C211.423 190.782 212.029 192.247 212.269 193.978C212.505 195.685 212.28 197.249 211.596 198.669C210.908 200.066 209.865 201.197 208.466 202.062L215.192 210.069C215.72 210.698 215.87 211.342 215.643 212.001C215.412 212.636 214.913 213.005 214.144 213.108C213.447 213.202 212.865 212.979 212.399 212.438L204.84 203.456C204.624 203.485 204.408 203.514 204.192 203.543L199.578 204.165L200.803 213.021C200.875 213.543 200.755 214.006 200.444 214.41C200.157 214.811 199.737 215.048 199.184 215.123ZM199.105 200.75L203.719 200.129C205.353 199.909 206.637 199.277 207.57 198.233C208.499 197.166 208.864 195.909 208.664 194.463C208.447 192.898 207.742 191.689 206.546 190.835C205.351 189.982 203.937 189.665 202.302 189.885L197.688 190.506L199.105 200.75Z" fill="#F9BA4F"/>
<path d="M239.076 213.613C238.546 213.559 238.118 213.335 237.794 212.941C237.469 212.547 237.334 212.088 237.389 211.564L239.924 187.391C239.981 186.843 240.209 186.421 240.605 186.125C241.005 185.805 241.47 185.672 242.001 185.726L248.514 186.391C250.324 186.576 251.888 187.12 253.208 188.025C254.53 188.906 255.508 190.04 256.143 191.428C256.802 192.819 257.04 194.383 256.858 196.121C256.678 197.835 256.085 199.302 255.08 200.523C254.076 201.719 252.792 202.575 251.226 203.089L255.842 212.438C256.204 213.172 256.195 213.833 255.817 214.42C255.441 214.983 254.867 215.225 254.095 215.146C253.395 215.075 252.884 214.722 252.56 214.088L247.369 203.597C247.152 203.575 246.934 203.553 246.717 203.53L242.085 203.058L241.153 211.949C241.098 212.472 240.871 212.894 240.472 213.214C240.096 213.537 239.631 213.67 239.076 213.613ZM242.445 199.63L247.077 200.103C248.717 200.27 250.116 199.956 251.272 199.159C252.431 198.339 253.087 197.203 253.239 195.751C253.404 194.18 253.008 192.841 252.051 191.732C251.094 190.624 249.796 189.986 248.155 189.819L243.523 189.346L242.445 199.63Z" fill="#F9BA4F"/>
<path d="M284.963 214.101C284.457 214.043 284.044 213.816 283.724 213.418C283.405 213.02 283.275 212.56 283.336 212.037L284.308 203.728L276.389 187.83C276.134 187.295 276.068 186.817 276.191 186.398C276.316 185.954 276.562 185.621 276.93 185.398C277.325 185.154 277.751 185.058 278.209 185.11C278.619 185.157 278.933 185.289 279.151 185.506C279.373 185.7 279.573 185.976 279.751 186.333L286.66 200.527L296.826 188.133C297.281 187.583 297.87 187.349 298.593 187.431C299.027 187.48 299.37 187.676 299.623 188.018C299.879 188.336 300.005 188.724 300 189.181C299.998 189.615 299.826 190.041 299.484 190.459L288.031 204.152L287.059 212.461C286.998 212.984 286.766 213.403 286.363 213.718C285.96 214.034 285.493 214.161 284.963 214.101Z" fill="#F9BA4F"/>
<path d="M105.058 215.754C104.528 215.816 104.061 215.691 103.656 215.377C103.251 215.064 103.017 214.645 102.954 214.123L100.017 189.993C99.9506 189.447 100.078 188.986 100.398 188.61C100.716 188.211 101.14 187.98 101.67 187.917C102.392 187.832 102.987 188.099 103.453 188.719L116.762 208.654L124.621 186.211C124.925 185.5 125.439 185.101 126.161 185.016C126.691 184.953 127.158 185.078 127.563 185.392C127.964 185.682 128.198 186.1 128.265 186.647L131.201 210.776C131.265 211.299 131.126 211.761 130.784 212.163C130.466 212.562 130.054 212.792 129.549 212.852C129.019 212.915 128.552 212.789 128.147 212.476C127.742 212.162 127.508 211.744 127.445 211.221L125.289 193.507L118.686 212.114C118.352 212.78 117.847 213.154 117.173 213.233C116.378 213.328 115.756 213.028 115.305 212.334L104.594 196.285L106.71 213.678C106.774 214.2 106.647 214.661 106.329 215.061C106.011 215.46 105.587 215.691 105.058 215.754Z" stroke="#FFFCF3" stroke-width="10" stroke-linejoin="round" mask="url(#path-2-outside-2)"/>
<path d="M153.885 213.163C153.356 213.092 152.936 212.854 152.624 212.45C152.313 212.046 152.193 211.583 152.265 211.062L155.589 186.981C155.664 186.436 155.905 186.021 156.311 185.738C156.72 185.43 157.19 185.312 157.718 185.383L174.013 187.573C174.565 187.647 174.987 187.873 175.278 188.25C175.572 188.603 175.683 189.041 175.611 189.562C175.542 190.06 175.318 190.441 174.939 190.704C174.56 190.967 174.094 191.061 173.541 190.987L159.122 189.05L157.929 197.693L168.275 199.083C168.828 199.158 169.249 199.383 169.54 199.76C169.834 200.114 169.947 200.54 169.878 201.038C169.809 201.536 169.584 201.928 169.201 202.215C168.822 202.478 168.357 202.572 167.804 202.498L157.458 201.108L156.23 210L170.65 211.938C171.203 212.012 171.626 212.226 171.92 212.579C172.214 212.933 172.327 213.358 172.258 213.856C172.186 214.378 171.959 214.782 171.577 215.069C171.198 215.332 170.732 215.426 170.179 215.352L153.885 213.163Z" stroke="#FFFCF3" stroke-width="10" stroke-linejoin="round" mask="url(#path-2-outside-2)"/>
<path d="M199.184 215.123C198.655 215.194 198.186 215.076 197.776 214.769C197.367 214.462 197.126 214.047 197.054 213.526L193.723 189.446C193.647 188.901 193.767 188.438 194.081 188.058C194.393 187.653 194.813 187.416 195.341 187.344L201.83 186.471C203.632 186.228 205.283 186.392 206.782 186.963C208.277 187.51 209.5 188.384 210.449 189.585C211.423 190.782 212.029 192.247 212.269 193.978C212.505 195.685 212.28 197.249 211.596 198.669C210.908 200.066 209.865 201.197 208.466 202.062L215.192 210.069C215.72 210.698 215.87 211.342 215.643 212.001C215.412 212.636 214.913 213.005 214.144 213.108C213.447 213.202 212.865 212.979 212.399 212.438L204.84 203.456C204.624 203.485 204.408 203.514 204.192 203.543L199.578 204.165L200.803 213.021C200.875 213.543 200.755 214.006 200.444 214.41C200.157 214.811 199.737 215.048 199.184 215.123ZM199.105 200.75L203.719 200.129C205.353 199.909 206.637 199.277 207.57 198.233C208.499 197.166 208.864 195.909 208.664 194.463C208.447 192.898 207.742 191.689 206.546 190.835C205.351 189.982 203.937 189.665 202.302 189.885L197.688 190.506L199.105 200.75Z" stroke="#FFFCF3" stroke-width="10" stroke-linejoin="round" mask="url(#path-2-outside-2)"/>
<path d="M239.076 213.613C238.546 213.559 238.118 213.335 237.794 212.941C237.469 212.547 237.334 212.088 237.389 211.564L239.924 187.391C239.981 186.843 240.209 186.421 240.605 186.125C241.005 185.805 241.47 185.672 242.001 185.726L248.514 186.391C250.324 186.576 251.888 187.12 253.208 188.025C254.53 188.906 255.508 190.04 256.143 191.428C256.802 192.819 257.04 194.383 256.858 196.121C256.678 197.835 256.085 199.302 255.08 200.523C254.076 201.719 252.792 202.575 251.226 203.089L255.842 212.438C256.204 213.172 256.195 213.833 255.817 214.42C255.441 214.983 254.867 215.225 254.095 215.146C253.395 215.075 252.884 214.722 252.56 214.088L247.369 203.597C247.152 203.575 246.934 203.553 246.717 203.53L242.085 203.058L241.153 211.949C241.098 212.472 240.871 212.894 240.472 213.214C240.096 213.537 239.631 213.67 239.076 213.613ZM242.445 199.63L247.077 200.103C248.717 200.27 250.116 199.956 251.272 199.159C252.431 198.339 253.087 197.203 253.239 195.751C253.404 194.18 253.008 192.841 252.051 191.732C251.094 190.624 249.796 189.986 248.155 189.819L243.523 189.346L242.445 199.63Z" stroke="#FFFCF3" stroke-width="10" stroke-linejoin="round" mask="url(#path-2-outside-2)"/>
<path d="M284.963 214.101C284.457 214.043 284.044 213.816 283.724 213.418C283.405 213.02 283.275 212.56 283.336 212.037L284.308 203.728L276.389 187.83C276.134 187.295 276.068 186.817 276.191 186.398C276.316 185.954 276.562 185.621 276.93 185.398C277.325 185.154 277.751 185.058 278.209 185.11C278.619 185.157 278.933 185.289 279.151 185.506C279.373 185.7 279.573 185.976 279.751 186.333L286.66 200.527L296.826 188.133C297.281 187.583 297.87 187.349 298.593 187.431C299.027 187.48 299.37 187.676 299.623 188.018C299.879 188.336 300.005 188.724 300 189.181C299.998 189.615 299.826 190.041 299.484 190.459L288.031 204.152L287.059 212.461C286.998 212.984 286.766 213.403 286.363 213.718C285.96 214.034 285.493 214.161 284.963 214.101Z" stroke="#FFFCF3" stroke-width="10" stroke-linejoin="round" mask="url(#path-2-outside-2)"/>
</svg>
