<svg width="25" height="32" fill="none" xmlns="http://www.w3.org/2000/svg"><path d="M22.552 6.607h-3.924C18.12 3.464 15.4.8 12.425.8 9.451.8 6.73 3.464 6.223 6.607H2.299C1.223 6.607.4 7.495.4 8.657V29.15c0 1.16.823 2.049 1.9 2.049h20.252c1.076 0 1.898-.888 1.898-2.05V8.657c0-1.161-.822-2.05-1.898-2.05zM12.425 2.849c1.9 0 3.798 1.777 4.24 3.758h-8.48c.443-1.981 2.342-3.758 4.24-3.758zm10.127 26.302H2.299V8.656h3.797v2.05c0 .546.443 1.024.95 1.024.506 0 .95-.478.95-1.024v-2.05h8.86v2.05c0 .546.443 1.024.949 1.024s.95-.478.95-1.024v-2.05h3.797v20.495z" fill="#4E372A"/></svg>