<svg xmlns="http://www.w3.org/2000/svg" width="512" height="512" viewBox="0 0 64 64"><g fill="#85be37"><path d="M46.025 18.086L24.111 42.307l-6.91-7.637a2 2 0 10-2.965 2.683l8.048 8.894c.368.536.979.85 1.627.85.073 0 .146-.03.22-.039.051.004.1.032.15.032a2.05 2.05 0 001.555-.725L48.99 20.77a2 2 0 00-2.965-2.684z"/><path d="M31.998 0C14.354 0 0 14.355 0 32s14.354 32 31.998 32C49.645 64 64 49.645 64 32S49.645 0 31.998 0zm0 60C16.561 60 4 47.439 4 32S16.561 4 31.998 4C47.438 4 60 16.561 60 32S47.438 60 31.998 60z"/></g></svg>